<?xml version="1.0" encoding="utf-8"?>
<!-- Generator: Adobe Illustrator 15.0.0, SVG Export Plug-In . SVG Version: 6.00 Build 0)  -->
<!DOCTYPE svg PUBLIC "-//W3C//DTD SVG 1.1//EN" "http://www.w3.org/Graphics/SVG/1.1/DTD/svg11.dtd">
<svg version="1.1" id="Layer_1" xmlns="http://www.w3.org/2000/svg" xmlns:xlink="http://www.w3.org/1999/xlink" x="0px" y="0px"
	 width="67px" height="21px" viewBox="0 0 67 21" enable-background="new 0 0 67 21" xml:space="preserve">
<g>
	<path fill="#F75284" d="M21,4.102H0v12.797h21V4.102z M19.56,4.758l-9.06,5.844L1.442,4.758H19.56z M0.656,16.242V5.032l9.844,6.35
		l9.845-6.35v11.21H0.656z"/>
</g>
<g>
	<path fill="#F75284" d="M36.728,19.062h1.289v-3.871h-1.289v-0.887l2.304-4.279L33.499,0l-5.53,10.025l2.305,4.279v0.887h-1.291
		v3.871h1.291V21h6.454V19.062z M33.499,8.695c0.534,0,0.97,0.436,0.97,0.969s-0.436,0.968-0.97,0.968
		c-0.533,0-0.969-0.435-0.969-0.968S32.966,8.695,33.499,8.695z M28.703,10.029l4.475-8.108v6.163
		c-0.736,0.148-1.291,0.801-1.291,1.581c0,0.89,0.724,1.612,1.612,1.612c0.89,0,1.613-0.723,1.613-1.612
		c0-0.779-0.555-1.431-1.291-1.581V1.921l4.475,8.108l-2.215,4.111v1.051h-5.164v-1.051L28.703,10.029z M29.626,18.418v-2.582h7.746
		v2.582h-0.646h-6.453H29.626z M36.081,20.354h-5.164v-1.291h5.164V20.354z"/>
</g>
<path fill="#F75284" d="M66.986,4.333c0.041-0.147-0.016-0.306-0.143-0.392c-0.125-0.086-0.295-0.082-0.416,0.008
	c-0.117,0.088-0.291,0.171-0.518,0.246l-0.4,0.133L65.775,4c0.615-0.766,0.637-1.266,0.627-1.4c-0.012-0.127-0.09-0.242-0.207-0.297
	c-0.115-0.054-0.254-0.041-0.357,0.033c-0.893,0.639-1.781,0.797-2.371,0.816l-0.051,0.004l-0.037-0.035
	c-0.822-0.764-1.895-1.184-3.021-1.184c-2.447,0-4.439,1.99-4.439,4.438c0,0.181,0.012,0.356,0.031,0.53l0.018,0.142l-0.143-0.004
	c-4.283-0.106-7.701-4.108-7.734-4.147c-0.066-0.08-0.166-0.127-0.271-0.127l-0.031,0.002c-0.115,0.011-0.219,0.076-0.277,0.177
	c-1.158,1.981-0.436,3.76,0.1,4.644l0.234,0.389l-0.398-0.215c-0.102-0.056-0.227-0.058-0.328-0.007
	c-0.121,0.062-0.197,0.181-0.199,0.315c-0.025,1.55,0.541,2.773,1.682,3.639l0.172,0.131l-0.201,0.082
	c-0.047,0.021-0.092,0.051-0.127,0.09c-0.086,0.094-0.113,0.228-0.076,0.349c0.588,1.897,1.947,2.637,2.986,2.922l0.252,0.069
	l-0.215,0.15c-1.211,0.855-2.715,1.035-3.764,1.035c-0.652,0-1.115-0.071-1.201-0.086c-0.023-0.004-0.045-0.006-0.064-0.006
	c-0.143,0-0.271,0.085-0.328,0.216c-0.066,0.151-0.021,0.328,0.111,0.429c2.166,1.627,4.785,1.969,6.602,1.969
	c1.439,0,2.441-0.211,2.482-0.221c9.289-2.168,9.682-10.428,9.664-12.061V6.725l0.041-0.037C66.723,5.043,66.959,4.438,66.986,4.333
	z M64.289,6.309c-0.082,0.074-0.125,0.18-0.117,0.289c0.006,0.094,0.543,9.295-9.102,11.547c-0.01,0.002-0.975,0.203-2.326,0.203
	c-1.16,0-2.889-0.152-4.535-0.875l-0.465-0.203l0.508-0.033c1.301-0.082,3.121-0.479,4.408-1.905
	c0.096-0.104,0.117-0.255,0.061-0.386c-0.057-0.129-0.186-0.213-0.328-0.213c-0.084,0-2.059-0.021-3.043-1.85l-0.102-0.189
	l0.215,0.009c0.424,0.016,0.799-0.05,1.078-0.177c0.139-0.062,0.223-0.209,0.205-0.362c-0.016-0.154-0.129-0.279-0.279-0.312
	c-0.098-0.021-2.367-0.539-2.775-2.92l-0.035-0.213l0.201,0.077c0.387,0.146,0.754,0.204,1.1,0.154
	c0.139-0.021,0.254-0.121,0.293-0.257c0.037-0.135-0.006-0.279-0.113-0.37c-0.092-0.077-2.246-1.938-1.309-4.396l0.068-0.18
	l0.137,0.138c1.191,1.21,4.461,4.087,8.391,3.865c0.109-0.006,0.207-0.06,0.27-0.146c0.062-0.088,0.084-0.196,0.059-0.301
	c-0.078-0.302-0.117-0.613-0.117-0.928c0-2.054,1.672-3.727,3.725-3.727c1.008,0,1.949,0.396,2.656,1.113
	c0.066,0.066,0.156,0.105,0.248,0.106h0.074c0.344,0,0.887-0.042,1.506-0.242l0.461-0.147l-0.332,0.352
	c-0.225,0.238-0.504,0.486-0.826,0.736c-0.125,0.098-0.172,0.263-0.113,0.412c0.051,0.137,0.186,0.229,0.33,0.229
	c0.096-0.006,0.438-0.035,0.861-0.111l0.383-0.067l-0.271,0.276C65.033,5.614,64.682,5.951,64.289,6.309z"/>
</svg>
