<?xml version="1.0" encoding="utf-8"?>
<!-- Generator: Adobe Illustrator 15.0.0, SVG Export Plug-In . SVG Version: 6.00 Build 0)  -->
<!DOCTYPE svg PUBLIC "-//W3C//DTD SVG 1.1//EN" "http://www.w3.org/Graphics/SVG/1.1/DTD/svg11.dtd">
<svg version="1.1" id="Layer_1" xmlns="http://www.w3.org/2000/svg" xmlns:xlink="http://www.w3.org/1999/xlink" x="0px" y="0px"
	 width="132px" height="132px" viewBox="0 0 132 132" enable-background="new 0 0 132 132" xml:space="preserve">
<g>
	<g>
		<polygon points="31.999,24.414 48.292,40.707 49.706,39.146 32.706,22 31.292,22 14.292,39.146 15.706,40.634 		"/>
	</g>
	<g>
		<polygon points="100.708,42 117.708,24.854 116.294,23.366 100.001,39.623 83.708,23.312 82.294,24.863 99.294,42 		"/>
	</g>
	<g>
		
			<linearGradient id="SVGID_1_" gradientUnits="userSpaceOnUse" x1="-147.2427" y1="770.4473" x2="-150.9544" y2="749.397" gradientTransform="matrix(1 0 0 1 180 -659)">
			<stop  offset="0" style="stop-color:#66F1FA"/>
			<stop  offset="0.0497" style="stop-color:#60DEE6"/>
			<stop  offset="0.233" style="stop-color:#499BA0"/>
			<stop  offset="0.3982" style="stop-color:#376669"/>
			<stop  offset="0.5395" style="stop-color:#2B4041"/>
			<stop  offset="0.6514" style="stop-color:#232929"/>
			<stop  offset="0.72" style="stop-color:#202020"/>
		</linearGradient>
		<polygon fill="url(#SVGID_1_)" points="31.999,92.414 48.292,108.707 49.706,107.146 32.706,90 31.292,90 14.292,107.146 
			15.706,108.634 		"/>
	</g>
	<g>
		
			<linearGradient id="SVGID_2_" gradientUnits="userSpaceOnUse" x1="-77.0464" y1="768.6035" x2="-80.7547" y2="747.5724" gradientTransform="matrix(1 0 0 1 180 -659)">
			<stop  offset="0" style="stop-color:#66F1FA"/>
			<stop  offset="0.0497" style="stop-color:#60DEE6"/>
			<stop  offset="0.233" style="stop-color:#499BA0"/>
			<stop  offset="0.3982" style="stop-color:#376669"/>
			<stop  offset="0.5395" style="stop-color:#2B4041"/>
			<stop  offset="0.6514" style="stop-color:#232929"/>
			<stop  offset="0.72" style="stop-color:#202020"/>
		</linearGradient>
		<polygon fill="url(#SVGID_2_)" points="100.708,110 117.708,92.854 116.294,91.366 100.001,107.623 83.708,91.312 82.294,92.863 
			99.294,110 		"/>
	</g>
</g>
</svg>
