<?xml version="1.0" encoding="utf-8"?>
<!-- Generator: Adobe Illustrator 15.0.0, SVG Export Plug-In . SVG Version: 6.00 Build 0)  -->
<!DOCTYPE svg PUBLIC "-//W3C//DTD SVG 1.1//EN" "http://www.w3.org/Graphics/SVG/1.1/DTD/svg11.dtd">
<svg version="1.1" id="Layer_1" xmlns="http://www.w3.org/2000/svg" xmlns:xlink="http://www.w3.org/1999/xlink" x="0px" y="0px"
	 width="216px" height="84px" viewBox="-3.288 -5.676 216 84" enable-background="new -3.288 -5.676 216 84" xml:space="preserve">
<path fill="#202020" d="M16.712,34.324c11.046,0,20-8.953,20-20c0-11.045-8.954-20-20-20c-11.045,0-20,8.955-20,20
	C-3.288,25.37,5.667,34.324,16.712,34.324 M11.987,19.745c0,0-3.457-0.065-4.453-3.291c0,0,1.727,0.135,2.027-0.197
	c0,0-3.723-0.897-3.756-4.788c0,0,1.13,0.565,2.16,0.6c0,0-3.589-2.593-1.413-6.465c0,0,3.624,4.802,9.921,5.133
	c0,0-0.853-2.837,1.761-5.006c2.615-2.174,5.851-0.333,6.47,0.488c0,0,1.84-0.291,3.124-1.155c0,0-0.42,1.659-1.97,2.658
	c0,0,1.816-0.241,2.659-0.73c0,0-0.886,1.42-2.416,2.506c0,0,0.644,5.994-4.507,10.945c-5.154,4.954-13.628,3.923-16.687,1.329
	C4.908,21.774,9.062,22.24,11.987,19.745"/>
<path fill="#202020" d="M104.712,34.324c11.045,0,20-8.953,20-20c0-11.045-8.955-20-20-20c-11.046,0-20,8.955-20,20
	C84.712,25.37,93.666,34.324,104.712,34.324 M99.879,23.011H96.26V11.406h3.619V23.011z M102.147,11.406h3.468v1.642
	c0.931-1.523,2.689-2.386,5.361-1.642c2.673,0.746,2.454,5.312,2.454,5.312v6.292h-3.636v-5.97c0-0.676,0.151-2.725-2.013-2.725
	c-2.167,0-2.031,2.708-2.031,2.708v5.987h-3.604V11.406z M98.085,5.636c1.157,0,2.095,0.938,2.095,2.097
	c0,1.159-0.938,2.095-2.095,2.095c-1.158,0-2.096-0.936-2.096-2.095C95.989,6.574,96.927,5.636,98.085,5.636"/>
<path fill="#202020" d="M60.709,34.324c11.045,0,20.002-8.955,20.002-20c0-11.048-8.956-20-20.002-20
	c-11.043,0-19.998,8.952-19.998,20C40.712,25.367,49.667,34.324,60.709,34.324 M51.757,10.864c0,0,0.324-7.741,8.974-8.073
	c8.615-0.333,8.918,7.623,8.918,7.623s0.27,1.957-1.115,5.049c-1.385,3.093-4.007,3.997-6.035,4.037
	c-2.027,0.039-3.273-1.606-3.273-1.606l-0.743,2.913c-0.603,2.509-1.845,3.994-2.087,4.377c-0.241,0.38-0.563,0.702-0.703,0.682
	c-0.141-0.021-0.141-0.4-0.141-0.4s-0.16-2.21-0.138-3.013c0.02-0.805,0.32-2.09,0.32-2.09l1.609-7.007
	c-0.363-0.745-0.463-1.989-0.463-1.989c-0.102-1.848,1.184-3.414,2.569-3.455c1.387-0.039,1.747,1.025,1.828,1.849
	c0.08,0.821-0.522,2.932-1.065,4.337c-0.542,1.406,0.624,4.197,3.413,2.692c2.792-1.507,2.771-6.445,2.771-6.445
	c0-5.485-5.381-5.285-5.381-5.285c-5.582,0-6.666,4.68-6.666,6.269c0,1.587,0.894,2.731,0.894,2.731
	c0.29,0.341,0.15,0.843,0.15,0.843l-0.301,1.065c-0.11,0.386-0.712,0.138-0.712,0.138C51.458,14.596,51.757,10.864,51.757,10.864"/>
<g>
	<path fill="#202020" d="M144.228,14.974h-3.817v3.815h3.845c0,0,1.752-0.255,1.752-1.908
		C146.007,15.23,144.228,14.974,144.228,14.974z"/>
	<path fill="#202020" d="M145.384,11.199c0,0-0.084-1.568-1.469-1.568h-3.506v3.137h3.223
		C143.633,12.767,145.384,12.825,145.384,11.199z"/>
	<path fill="#202020" d="M148.712-5.676c-11.045,0-20,8.954-20,20s8.955,20,20,20s20-8.954,20-20S159.757-5.676,148.712-5.676z
		 M152.196,8.133h5.652v1.499h-5.652V8.133z M149.058,17.036c0,4.325-4.549,4.153-4.549,4.153h-7.18V7.23h7.915
		c1.327,0.226,3.05,0.762,3.166,3.25c0.112,2.487-1.839,3.107-1.839,3.107C149.293,14.418,149.058,17.036,149.058,17.036z
		 M160.083,16.882h-7.349c0.028,1.118,0.819,2.501,2.431,2.501s2.259-1.357,2.259-1.357h2.518c-0.341,0.82-1.273,3.393-4.721,3.393
		s-4.805-2.487-5.059-3.418c-0.254-0.936-0.254-1.952-0.254-1.952c0.254-5.2,5.087-5.313,5.087-5.313
		C160.562,10.734,160.083,16.882,160.083,16.882z"/>
	<path fill="#202020" d="M155.022,12.912c-1.979,0-2.289,2.062-2.289,2.062h4.521C157.001,12.741,155.022,12.912,155.022,12.912z"/>
</g>
<g>
	<path fill="#202020" d="M192.712-5.676c-11.045,0-20,8.954-20,20c0,11.045,8.955,20,20,20s20-8.955,20-20
		C212.712,3.278,203.757-5.676,192.712-5.676z M192.712,26.091c-6.498,0-11.768-5.268-11.768-11.767
		c0-6.498,5.27-11.767,11.768-11.767c6.497,0,11.765,5.269,11.765,11.767C204.477,20.823,199.209,26.091,192.712,26.091z"/>
	<path fill="#202020" d="M193.929,10.26c2.052-0.786,3.926-1.924,5.159-3.56c-1.727-1.445-3.949-2.316-6.377-2.316
		c-0.777,0-1.536,0.088-2.261,0.256c0.635,0.85,1.669,2.334,2.815,4.392C193.479,9.413,193.702,9.823,193.929,10.26z"/>
	<path fill="#202020" d="M194.803,12.034c0.243,0.521,0.488,1.069,0.732,1.648c2.051-0.398,4.424-0.425,7.105,0.21
		c-0.092-2.178-0.885-4.175-2.161-5.769C199.036,9.916,196.998,11.166,194.803,12.034z"/>
	<path fill="#202020" d="M188.488,5.324c-2.707,1.274-4.747,3.731-5.45,6.709c1.418,0,5.259-0.106,8.987-1.147
		C190.438,7.885,188.985,5.952,188.488,5.324z"/>
	<path fill="#202020" d="M196.272,15.539c0.779,2.07,1.499,4.416,2.041,6.994c2.207-1.509,3.776-3.885,4.212-6.639
		C200.34,15.332,198.25,15.214,196.272,15.539z"/>
	<path fill="#202020" d="M189.188,16.476c1.158-0.844,2.631-1.696,4.419-2.29c-0.227-0.521-0.454-1.022-0.681-1.504
		c-3.977,1.185-8.043,1.324-9.736,1.324c-0.159,0-0.298-0.001-0.413-0.002c-0.002,0.106-0.005,0.212-0.005,0.32
		c0,2.415,0.861,4.623,2.288,6.345C185.72,19.73,187.087,18.011,189.188,16.476z"/>
	<path fill="#202020" d="M190.352,18.068c-2.135,1.558-3.418,3.33-3.864,4.006c1.704,1.367,3.868,2.188,6.225,2.188
		c1.343,0,2.623-0.266,3.789-0.748c-0.543-2.774-1.309-5.289-2.157-7.509C192.95,16.457,191.617,17.142,190.352,18.068z"/>
</g>
<linearGradient id="SVGID_1_" gradientUnits="userSpaceOnUse" x1="-69.8145" y1="211.6248" x2="-76.7616" y2="251.0238" gradientTransform="matrix(1 0 0 -1 90 289.6479)">
	<stop  offset="0" style="stop-color:#66F1FA"/>
	<stop  offset="0.6" style="stop-color:#202020"/>
</linearGradient>
<path fill="url(#SVGID_1_)" d="M16.712,78.324c11.046,0,20-8.951,20-19.997s-8.954-20.003-20-20.003c-11.045,0-20,8.957-20,20.003
	S5.667,78.324,16.712,78.324 M11.987,63.749c0,0-3.457-0.066-4.453-3.29c0,0,1.727,0.133,2.027-0.198c0,0-3.723-0.898-3.756-4.788
	c0,0,1.13,0.566,2.16,0.599c0,0-3.589-2.592-1.413-6.466c0,0,3.624,4.805,9.921,5.136c0,0-0.853-2.84,1.761-5.008
	c2.615-2.175,5.851-0.334,6.47,0.487c0,0,1.84-0.29,3.124-1.153c0,0-0.42,1.658-1.97,2.657c0,0,1.816-0.242,2.659-0.73
	c0,0-0.886,1.42-2.416,2.507c0,0,0.644,5.993-4.507,10.945c-5.154,4.952-13.628,3.923-16.687,1.33
	C4.908,65.777,9.062,66.244,11.987,63.749"/>
<linearGradient id="SVGID_2_" gradientUnits="userSpaceOnUse" x1="18.1846" y1="211.6238" x2="11.2375" y2="251.0228" gradientTransform="matrix(1 0 0 -1 90 289.6479)">
	<stop  offset="0" style="stop-color:#66F1FA"/>
	<stop  offset="0.6" style="stop-color:#202020"/>
</linearGradient>
<path fill="url(#SVGID_2_)" d="M104.712,78.324c11.045,0,20-8.951,20-19.996c0-11.047-8.955-20.004-20-20.004
	c-11.046,0-20,8.957-20,20.004C84.712,69.373,93.666,78.324,104.712,78.324 M99.879,67.013H96.26V55.41h3.619V67.013z
	 M102.147,55.41h3.468v1.64c0.931-1.521,2.689-2.385,5.361-1.64c2.673,0.744,2.454,5.312,2.454,5.312v6.291h-3.636v-5.969
	c0-0.677,0.151-2.725-2.013-2.725c-2.167,0-2.031,2.707-2.031,2.707v5.986h-3.604V55.41z M98.085,49.639
	c1.157,0,2.095,0.938,2.095,2.097s-0.938,2.094-2.095,2.094c-1.158,0-2.096-0.937-2.096-2.094S96.927,49.639,98.085,49.639"/>
<linearGradient id="SVGID_3_" gradientUnits="userSpaceOnUse" x1="-25.8154" y1="211.6248" x2="-32.7625" y2="251.0233" gradientTransform="matrix(1 0 0 -1 90 289.6479)">
	<stop  offset="0" style="stop-color:#66F1FA"/>
	<stop  offset="0.6" style="stop-color:#202020"/>
</linearGradient>
<path fill="url(#SVGID_3_)" d="M60.709,78.324c11.045,0,20.002-8.953,20.002-19.996c0-11.049-8.956-20.004-20.002-20.004
	c-11.044,0-19.998,8.955-19.998,20.004C40.712,69.371,49.667,78.324,60.709,78.324 M51.757,54.865c0,0,0.324-7.74,8.974-8.074
	c8.615-0.332,8.918,7.625,8.918,7.625s0.27,1.955-1.115,5.05c-1.385,3.092-4.007,3.994-6.035,4.034
	c-2.027,0.041-3.273-1.605-3.273-1.605l-0.743,2.912c-0.603,2.509-1.845,3.994-2.087,4.376c-0.241,0.382-0.563,0.703-0.703,0.683
	c-0.141-0.02-0.141-0.399-0.141-0.399s-0.16-2.21-0.138-3.012c0.02-0.806,0.32-2.09,0.32-2.09l1.609-7.008
	c-0.363-0.743-0.463-1.988-0.463-1.988c-0.102-1.849,1.184-3.415,2.569-3.455c1.387-0.039,1.747,1.024,1.828,1.848
	c0.08,0.824-0.522,2.933-1.065,4.339c-0.542,1.406,0.624,4.197,3.413,2.691c2.792-1.506,2.771-6.445,2.771-6.445
	c0-5.485-5.381-5.285-5.381-5.285c-5.582,0-6.666,4.681-6.666,6.269s0.894,2.734,0.894,2.734c0.29,0.339,0.15,0.842,0.15,0.842
	l-0.301,1.064c-0.11,0.387-0.712,0.139-0.712,0.139C51.458,58.601,51.757,54.865,51.757,54.865"/>
<linearGradient id="SVGID_4_" gradientUnits="userSpaceOnUse" x1="62.1846" y1="211.6248" x2="55.2373" y2="251.0238" gradientTransform="matrix(1 0 0 -1 90 289.6479)">
	<stop  offset="0" style="stop-color:#66F1FA"/>
	<stop  offset="0.6" style="stop-color:#202020"/>
</linearGradient>
<path fill="url(#SVGID_4_)" d="M145.384,55.203c0,0-0.084-1.569-1.469-1.569h-3.506v3.138h3.223
	C143.633,56.771,145.384,56.829,145.384,55.203z M155.022,56.915c-1.979,0-2.289,2.061-2.289,2.061h4.521
	C157.001,56.742,155.022,56.915,155.022,56.915z M144.228,58.977h-3.817v3.813h3.845c0,0,1.752-0.254,1.752-1.906
	S144.228,58.977,144.228,58.977z M148.712,38.324c-11.045,0-20,8.956-20,20.004c0,11.044,8.955,19.996,20,19.996s20-8.952,20-19.996
	C168.712,47.28,159.757,38.324,148.712,38.324z M152.196,52.136h5.652v1.498h-5.652V52.136z M149.058,61.041
	c0,4.324-4.549,4.152-4.549,4.152h-7.18v-13.96h7.915c1.327,0.226,3.05,0.76,3.166,3.25c0.112,2.487-1.839,3.107-1.839,3.107
	C149.293,58.422,149.058,61.041,149.058,61.041z M160.083,60.885h-7.349c0.028,1.117,0.819,2.501,2.431,2.501
	s2.259-1.357,2.259-1.357h2.518c-0.341,0.82-1.273,3.392-4.721,3.392s-4.805-2.487-5.059-3.418c-0.254-0.936-0.254-1.95-0.254-1.95
	c0.254-5.201,5.087-5.314,5.087-5.314C160.562,54.738,160.083,60.885,160.083,60.885z"/>
<linearGradient id="SVGID_5_" gradientUnits="userSpaceOnUse" x1="106.1855" y1="211.6248" x2="99.2384" y2="251.0238" gradientTransform="matrix(1 0 0 -1 90 289.6479)">
	<stop  offset="0" style="stop-color:#66F1FA"/>
	<stop  offset="0.6" style="stop-color:#202020"/>
</linearGradient>
<path fill="url(#SVGID_5_)" d="M189.188,60.479c1.158-0.842,2.631-1.694,4.419-2.289c-0.227-0.521-0.454-1.023-0.681-1.505
	c-3.977,1.188-8.043,1.326-9.736,1.326c-0.159,0-0.298-0.001-0.413-0.002c-0.002,0.105-0.005,0.212-0.005,0.319
	c0,2.413,0.861,4.622,2.288,6.344C185.72,63.733,187.087,62.014,189.188,60.479z M190.352,62.071
	c-2.135,1.558-3.418,3.329-3.864,4.006c1.704,1.366,3.868,2.187,6.225,2.187c1.343,0,2.623-0.268,3.789-0.749
	c-0.543-2.773-1.309-5.287-2.157-7.506C192.95,60.46,191.617,61.147,190.352,62.071z M193.929,54.263
	c2.052-0.787,3.926-1.925,5.159-3.562c-1.727-1.445-3.949-2.315-6.377-2.315c-0.777,0-1.536,0.088-2.261,0.257
	c0.635,0.848,1.669,2.335,2.815,4.391C193.479,53.414,193.702,53.824,193.929,54.263z M188.488,49.327
	c-2.707,1.273-4.747,3.731-5.45,6.71c1.418,0,5.259-0.106,8.987-1.147C190.438,51.887,188.985,49.955,188.488,49.327z
	 M196.272,59.542c0.779,2.071,1.499,4.417,2.041,6.993c2.207-1.508,3.776-3.883,4.212-6.637
	C200.34,59.336,198.25,59.219,196.272,59.542z M192.712,38.324c-11.045,0-20,8.956-20,20.004c0,11.043,8.955,19.996,20,19.996
	s20-8.953,20-19.996C212.712,47.28,203.757,38.324,192.712,38.324z M192.712,70.092c-6.498,0-11.768-5.266-11.768-11.764
	c0-6.499,5.27-11.77,11.768-11.77c6.497,0,11.765,5.271,11.765,11.77C204.477,64.826,199.209,70.092,192.712,70.092z
	 M194.803,56.038c0.243,0.521,0.488,1.068,0.732,1.646c2.051-0.396,4.424-0.425,7.105,0.211c-0.092-2.177-0.885-4.176-2.161-5.769
	C199.036,53.918,196.998,55.169,194.803,56.038z"/>
</svg>
