<?xml version="1.0" encoding="utf-8"?>
<!-- Generator: Adobe Illustrator 15.0.0, SVG Export Plug-In . SVG Version: 6.00 Build 0)  -->
<!DOCTYPE svg PUBLIC "-//W3C//DTD SVG 1.1//EN" "http://www.w3.org/Graphics/SVG/1.1/DTD/svg11.dtd">
<svg version="1.1" id="Layer_1" xmlns="http://www.w3.org/2000/svg" xmlns:xlink="http://www.w3.org/1999/xlink" x="0px" y="0px"
	 width="368px" height="244px" viewBox="0 0 368 244" enable-background="new 0 0 368 244" xml:space="preserve">
<linearGradient id="SVGID_1_" gradientUnits="userSpaceOnUse" x1="-199.5791" y1="-453.2661" x2="-220.4192" y2="-335.0772" gradientTransform="matrix(1 0 0 -1 270 -334.1719)">
	<stop  offset="0" style="stop-color:#66F1FA"/>
	<stop  offset="0.0497" style="stop-color:#60DEE6"/>
	<stop  offset="0.233" style="stop-color:#499BA0"/>
	<stop  offset="0.3982" style="stop-color:#376669"/>
	<stop  offset="0.5395" style="stop-color:#2B4041"/>
	<stop  offset="0.6514" style="stop-color:#232929"/>
	<stop  offset="0.72" style="stop-color:#202020"/>
</linearGradient>
<path fill="url(#SVGID_1_)" d="M57.79,67.805l-6.302-6.303l-1.416,1.562l7.01,7.155h1.417l13.019-13.165l-1.416-1.49L57.79,67.805z
	 M60,0C26.916,0,0,26.916,0,60c0,33.085,26.916,60,60,60c33.085,0,60-26.915,60-60C120,26.916,93.085,0,60,0z M60,115.994
	C29.125,115.994,4.006,90.875,4.006,60S29.125,4.006,60,4.006S115.994,29.125,115.994,60S90.875,115.994,60,115.994z M68.587,32.167
	H64.8v-4.005H54.786v4.005H51l-0.751,3.004H36.761v57.082h46.065V35.171H69.339L68.587,32.167z M52.563,34.17h4.226v-4.006h6.008
	v4.006h4.225l1.502,6.009H51.062L52.563,34.17z M80.823,37.174V90.25H38.762V37.174h10.985l-1.252,5.007h22.594l-1.252-5.007H80.823
	z"/>
<linearGradient id="SVGID_2_" gradientUnits="userSpaceOnUse" x1="48.4282" y1="-453.2651" x2="27.5883" y2="-335.0762" gradientTransform="matrix(1 0 0 -1 270 -334.1719)">
	<stop  offset="0" style="stop-color:#66F1FA"/>
	<stop  offset="0.0497" style="stop-color:#60DEE6"/>
	<stop  offset="0.233" style="stop-color:#499BA0"/>
	<stop  offset="0.3982" style="stop-color:#376669"/>
	<stop  offset="0.5395" style="stop-color:#2B4041"/>
	<stop  offset="0.6514" style="stop-color:#232929"/>
	<stop  offset="0.72" style="stop-color:#202020"/>
</linearGradient>
<path fill="url(#SVGID_2_)" d="M325.818,31.58v8.599h2.002V29.163l-1-1.002h-11.019v2.003h8.601l-35.34,35.344l1.416,1.416
	L325.818,31.58z M300.781,92.253h14.021V59.206h-14.021V92.253z M302.785,61.209h10.014V90.25h-10.014V61.209z M316.805,92.253
	h14.021V45.186h-14.021V92.253z M318.809,47.189h10.015v43.062h-10.015V47.189z M284.766,92.253h14.015V72.225h-14.015V92.253z
	 M286.768,74.229h10.01V90.25h-10.01V74.229z M308,0c-33.077,0-59.984,26.915-59.984,60s26.907,60,59.984,60
	c33.084,0,60-26.915,60-60S341.084,0,308,0z M308,115.994c-30.868,0-55.979-25.119-55.979-55.994S277.133,4.006,308,4.006
	c30.875,0,55.994,25.119,55.994,55.994S338.875,115.994,308,115.994z"/>
<linearGradient id="SVGID_3_" gradientUnits="userSpaceOnUse" x1="-75.5801" y1="-453.2661" x2="-96.4199" y2="-335.0776" gradientTransform="matrix(1 0 0 -1 270 -334.1719)">
	<stop  offset="0" style="stop-color:#66F1FA"/>
	<stop  offset="0.0497" style="stop-color:#60DEE6"/>
	<stop  offset="0.233" style="stop-color:#499BA0"/>
	<stop  offset="0.3982" style="stop-color:#376669"/>
	<stop  offset="0.5395" style="stop-color:#2B4041"/>
	<stop  offset="0.6514" style="stop-color:#232929"/>
	<stop  offset="0.72" style="stop-color:#202020"/>
</linearGradient>
<path fill="url(#SVGID_3_)" d="M216.214,74.604l-2.476-9.898l-36.957-36.957l-7.424,7.425l36.956,36.956L216.214,74.604z
	 M172.19,35.171l4.592-4.592l4.593,4.592l-4.593,4.593L172.19,35.171z M182.791,36.587l29.141,29.138l1.528,6.123l-6.122-1.529
	L178.199,41.18L182.791,36.587z M164.766,55.787V83.24h27.453L164.766,55.787z M166.769,60.622l20.615,20.614h-20.615V60.622z
	 M184,0c-33.085,0-60,26.916-60,60c0,33.085,26.915,60,60,60s60-26.915,60-60C244,26.916,217.085,0,184,0z M184,115.994
	c-30.875,0-55.994-25.119-55.994-55.994S153.125,4.006,184,4.006S239.994,29.125,239.994,60S214.875,115.994,184,115.994z
	 M151.747,92.253h64.506l-64.506-64.506V92.253z M153.75,83.24h6.008v-2.004h-6.008v-6.008h4.006v-2.002h-4.006v-6.01h6.008v-2.003
	h-6.008v-6.009h4.006v-2.003h-4.006v-6.009h6.008V49.19h-6.008V32.582l57.668,57.668H153.75V83.24z"/>
<linearGradient id="SVGID_4_" gradientUnits="userSpaceOnUse" x1="328.5293" y1="240.3838" x2="287.4849" y2="127.6152">
	<stop  offset="0" style="stop-color:#66F1FA"/>
	<stop  offset="0.0497" style="stop-color:#60DEE6"/>
	<stop  offset="0.233" style="stop-color:#499BA0"/>
	<stop  offset="0.3982" style="stop-color:#376669"/>
	<stop  offset="0.5395" style="stop-color:#2B4041"/>
	<stop  offset="0.6514" style="stop-color:#232929"/>
	<stop  offset="0.72" style="stop-color:#202020"/>
</linearGradient>
<path fill="url(#SVGID_4_)" d="M308,124c-33.077,0-59.984,26.915-59.984,60s26.907,60,59.984,60c33.084,0,60-26.915,60-60
	S341.084,124,308,124z M308,239.994c-30.868,0-55.979-25.119-55.979-55.994s25.111-55.994,55.979-55.994
	c30.875,0,55.994,25.119,55.994,55.994S338.875,239.994,308,239.994z M327.008,152c-7.168,0-13,5.832-13,13
	c0,2.702,0.83,5.213,2.246,7.294l-21.645,13.774c-1.978-1.896-4.652-3.068-7.602-3.068c-6.064,0-11,4.936-11,11s4.936,11,11,11
	c4.134,0,7.738-2.295,9.618-5.676l18.397,7.359c-0.002,0.105-0.016,0.211-0.016,0.316c0,4.963,4.037,9,9,9s9-4.037,9-9s-4.037-9-9-9
	c-4.148,0-7.643,2.826-8.68,6.65l-17.898-7.158c0.369-1.1,0.578-2.27,0.578-3.492c0-2.391-0.773-4.598-2.074-6.402l21.588-13.738
	c2.375,2.541,5.743,4.141,9.486,4.141c7.168,0,13-5.832,13-13S334.176,152,327.008,152z M324.008,200c3.859,0,7,3.141,7,7
	s-3.141,7-7,7s-7-3.141-7-7S320.148,200,324.008,200z M296.008,194c0,4.963-4.037,9-9,9s-9-4.037-9-9s4.037-9,9-9
	S296.008,189.037,296.008,194z M327.008,176c-6.064,0-11-4.936-11-11s4.936-11,11-11s11,4.936,11,11S333.072,176,327.008,176z"/>
<linearGradient id="SVGID_5_" gradientUnits="userSpaceOnUse" x1="204.5234" y1="240.3857" x2="163.4783" y2="127.6153">
	<stop  offset="0" style="stop-color:#66F1FA"/>
	<stop  offset="0.0497" style="stop-color:#60DEE6"/>
	<stop  offset="0.233" style="stop-color:#499BA0"/>
	<stop  offset="0.3982" style="stop-color:#376669"/>
	<stop  offset="0.5395" style="stop-color:#2B4041"/>
	<stop  offset="0.6514" style="stop-color:#232929"/>
	<stop  offset="0.72" style="stop-color:#202020"/>
</linearGradient>
<path fill="url(#SVGID_5_)" d="M189,171.001c0-2.757-2.243-5.001-5-5.001s-5,2.244-5,5.001c0,2.756,2.243,4.999,5,4.999
	S189,173.757,189,171.001z M181,171.001c0-1.655,1.346-3.001,3-3.001s3,1.346,3,3.001c0,1.654-1.346,2.999-3,2.999
	S181,172.655,181,171.001z M195,188v2h8.409l9.899,18h-58.617l9.899-18H173v-2h-9.591l-12.101,22h65.383l-12.101-22H195z M184,124
	c-33.085,0-60,26.916-60,60c0,33.085,26.915,60,60,60s60-26.915,60-60C244,150.916,217.085,124,184,124z M184,239.994
	c-30.875,0-55.994-25.119-55.994-55.994s25.119-55.994,55.994-55.994s55.994,25.119,55.994,55.994S214.875,239.994,184,239.994z
	 M183.977,200.582l0.775-0.948c0.543-0.663,13.292-16.351,13.248-26.614c-0.035-8.281-6.314-15.02-14-15.02
	c-7.721,0-14,6.739-14,15.023c0,10.26,12.664,25.944,13.203,26.606L183.977,200.582z M184,160c6.587,0,11.971,5.844,12,13.027
	c0.035,8.158-9.24,20.764-12.02,24.354c-2.764-3.595-11.98-16.198-11.98-24.358C172,165.842,177.383,160,184,160z"/>
<linearGradient id="SVGID_6_" gradientUnits="userSpaceOnUse" x1="80.5225" y1="240.3848" x2="39.4777" y2="127.6152">
	<stop  offset="0" style="stop-color:#66F1FA"/>
	<stop  offset="0.0497" style="stop-color:#60DEE6"/>
	<stop  offset="0.233" style="stop-color:#499BA0"/>
	<stop  offset="0.3982" style="stop-color:#376669"/>
	<stop  offset="0.5395" style="stop-color:#2B4041"/>
	<stop  offset="0.6514" style="stop-color:#232929"/>
	<stop  offset="0.72" style="stop-color:#202020"/>
</linearGradient>
<path fill="url(#SVGID_6_)" d="M60,124c-33.084,0-60,26.916-60,60c0,33.085,26.916,60,60,60c33.085,0,60-26.915,60-60
	C120,150.916,93.085,124,60,124z M60,239.994c-30.875,0-55.994-25.119-55.994-55.994S29.125,128.006,60,128.006
	s55.994,25.119,55.994,55.994S90.875,239.994,60,239.994z M63.682,177.977l3.822-24.848l-1.831-0.691l-23,36l0.843,1.539h12.695
	l-6.661,24.74l1.776,0.846l26-36l-0.811-1.586H63.682z M52.9,209.967l5.582-20.73l-0.966-1.26H45.342l19.465-30.469l-3.279,21.316
	l0.988,1.152H74.56L52.9,209.967z"/>
</svg>
