<?xml version="1.0" encoding="utf-8"?>
<!-- Generator: Adobe Illustrator 15.0.0, SVG Export Plug-In . SVG Version: 6.00 Build 0)  -->
<!DOCTYPE svg PUBLIC "-//W3C//DTD SVG 1.1//EN" "http://www.w3.org/Graphics/SVG/1.1/DTD/svg11.dtd">
<svg version="1.1" id="Layer_1" xmlns="http://www.w3.org/2000/svg" xmlns:xlink="http://www.w3.org/1999/xlink" x="0px" y="0px"
	 width="132px" height="132px" viewBox="0 0 132 132" enable-background="new 0 0 132 132" xml:space="preserve">
<g>
	<g>
		<polygon points="31.999,24.414 48.292,40.707 49.706,39.146 32.706,22 31.292,22 14.292,39.146 15.706,40.634 		"/>
		<path d="M31.998,64c0,0,0.001,0,0.002,0c8.548,0,16.583-3.33,22.627-9.373s9.372-14.08,9.371-22.628
			c0-8.548-3.328-16.584-9.372-22.627C48.583,3.329,40.548,0,32,0c-0.001,0-0.001,0-0.002,0C23.45,0,15.415,3.329,9.371,9.373
			C3.328,15.417-0.001,23.453,0,32.001c0,8.548,3.328,16.584,9.372,22.627C15.415,60.671,23.45,64,31.998,64z M10.786,10.787
			C16.451,5.121,23.985,2,32,2c0.001,0,0.001,0,0.002,0c8.013,0,15.545,3.121,21.211,8.786c5.666,5.666,8.786,13.2,8.785,21.213
			c0,8.015-3.12,15.548-8.785,21.214S40.015,62,32,62h-0.002c-0.001,0-0.001,0-0.002,0c-8.012,0-15.545-3.121-21.211-8.786
			C5.12,47.548,1.999,40.016,2,32.001C1.999,23.987,5.12,16.453,10.786,10.787z"/>
	</g>
	<g>
		<polygon points="100.708,42 117.708,24.854 116.294,23.366 100.001,39.623 83.708,23.312 82.294,24.863 99.294,42 		"/>
		<path d="M100,64c0,0,0.001,0,0.002,0c8.548,0,16.583-3.33,22.627-9.373s9.372-14.08,9.371-22.628
			c0-8.548-3.328-16.584-9.372-22.627C116.585,3.329,108.55,0,100.002,0c-0.001,0-0.001,0-0.002,0
			c-8.548,0-16.583,3.329-22.627,9.373c-6.043,6.044-9.372,14.08-9.371,22.628c0,8.548,3.328,16.584,9.372,22.627
			C83.417,60.671,91.452,64,100,64z M78.788,10.787C84.453,5.121,91.986,2,100.002,2c0.001,0,0.001,0,0.002,0
			c8.014,0,15.545,3.121,21.211,8.786c5.666,5.666,8.786,13.2,8.785,21.213c0,8.015-3.12,15.548-8.785,21.214S108.018,62,100.002,62
			H100c-0.001,0-0.001,0-0.002,0c-8.014,0-15.545-3.121-21.211-8.786c-5.665-5.666-8.786-13.198-8.785-21.213
			C70.001,23.986,73.122,16.453,78.788,10.787z"/>
	</g>
	<g>
		
			<linearGradient id="SVGID_1_" gradientUnits="userSpaceOnUse" x1="-57.2422" y1="237.5537" x2="-60.9539" y2="258.604" gradientTransform="matrix(1 0 0 -1 90 349)">
			<stop  offset="0" style="stop-color:#66F1FA"/>
			<stop  offset="0.0497" style="stop-color:#60DEE6"/>
			<stop  offset="0.233" style="stop-color:#499BA0"/>
			<stop  offset="0.3982" style="stop-color:#376669"/>
			<stop  offset="0.5395" style="stop-color:#2B4041"/>
			<stop  offset="0.6514" style="stop-color:#232929"/>
			<stop  offset="0.72" style="stop-color:#202020"/>
		</linearGradient>
		<polygon fill="url(#SVGID_1_)" points="31.999,92.414 48.292,108.707 49.706,107.146 32.706,90 31.292,90 14.292,107.146 
			15.706,108.634 		"/>
		
			<linearGradient id="SVGID_2_" gradientUnits="userSpaceOnUse" x1="-52.4424" y1="217.4785" x2="-63.5588" y2="280.5235" gradientTransform="matrix(1 0 0 -1 90 349)">
			<stop  offset="0" style="stop-color:#66F1FA"/>
			<stop  offset="0.0497" style="stop-color:#60DEE6"/>
			<stop  offset="0.233" style="stop-color:#499BA0"/>
			<stop  offset="0.3982" style="stop-color:#376669"/>
			<stop  offset="0.5395" style="stop-color:#2B4041"/>
			<stop  offset="0.6514" style="stop-color:#232929"/>
			<stop  offset="0.72" style="stop-color:#202020"/>
		</linearGradient>
		<path fill="url(#SVGID_2_)" d="M31.998,132c0,0,0.001,0,0.002,0c8.548,0,16.583-3.33,22.627-9.373s9.372-14.08,9.371-22.628
			c0-8.548-3.328-16.584-9.372-22.627C48.583,71.329,40.548,68,32,68c-0.001,0-0.001,0-0.002,0c-8.548,0-16.583,3.329-22.627,9.373
			C3.328,83.417-0.001,91.453,0,100.001c0,8.548,3.328,16.584,9.372,22.627C15.415,128.671,23.45,132,31.998,132z M10.786,78.787
			C16.451,73.121,23.984,70,32,70c0.001,0,0.001,0,0.002,0c8.013,0,15.545,3.121,21.211,8.786c5.666,5.666,8.786,13.2,8.785,21.213
			c0,8.015-3.12,15.548-8.785,21.214S40.015,130,32,130h-0.002c-0.001,0-0.001,0-0.002,0c-8.012,0-15.545-3.121-21.211-8.786
			C5.12,115.548,1.999,108.016,2,100.001C1.999,91.986,5.12,84.453,10.786,78.787z"/>
	</g>
	<g>
		
			<linearGradient id="SVGID_3_" gradientUnits="userSpaceOnUse" x1="12.9536" y1="239.3965" x2="9.2453" y2="260.4275" gradientTransform="matrix(1 0 0 -1 90 349)">
			<stop  offset="0" style="stop-color:#66F1FA"/>
			<stop  offset="0.0497" style="stop-color:#60DEE6"/>
			<stop  offset="0.233" style="stop-color:#499BA0"/>
			<stop  offset="0.3982" style="stop-color:#376669"/>
			<stop  offset="0.5395" style="stop-color:#2B4041"/>
			<stop  offset="0.6514" style="stop-color:#232929"/>
			<stop  offset="0.72" style="stop-color:#202020"/>
		</linearGradient>
		<polygon fill="url(#SVGID_3_)" points="100.708,110 117.708,92.854 116.294,91.366 100.001,107.623 83.708,91.312 82.294,92.863 
			99.294,110 		"/>
		
			<linearGradient id="SVGID_4_" gradientUnits="userSpaceOnUse" x1="15.5596" y1="217.4775" x2="4.4431" y2="280.5221" gradientTransform="matrix(1 0 0 -1 90 349)">
			<stop  offset="0" style="stop-color:#66F1FA"/>
			<stop  offset="0.0497" style="stop-color:#60DEE6"/>
			<stop  offset="0.233" style="stop-color:#499BA0"/>
			<stop  offset="0.3982" style="stop-color:#376669"/>
			<stop  offset="0.5395" style="stop-color:#2B4041"/>
			<stop  offset="0.6514" style="stop-color:#232929"/>
			<stop  offset="0.72" style="stop-color:#202020"/>
		</linearGradient>
		<path fill="url(#SVGID_4_)" d="M100,132c0,0,0.001,0,0.002,0c8.548,0,16.583-3.33,22.627-9.373s9.372-14.08,9.371-22.628
			c0-8.548-3.328-16.584-9.372-22.627C116.585,71.329,108.55,68,100.002,68c-0.001,0-0.001,0-0.002,0
			c-8.548,0-16.583,3.329-22.627,9.373c-6.043,6.044-9.372,14.08-9.371,22.628c0,8.548,3.328,16.584,9.372,22.627
			C83.417,128.671,91.452,132,100,132z M78.788,78.787C84.453,73.121,91.986,70,100.002,70c0.001,0,0.001,0,0.002,0
			c8.014,0,15.545,3.121,21.211,8.786c5.666,5.666,8.786,13.2,8.785,21.213c0,8.015-3.12,15.548-8.785,21.214
			S108.018,130,100.002,130H100c-0.001,0-0.001,0-0.002,0c-8.014,0-15.545-3.121-21.211-8.786
			c-5.665-5.666-8.786-13.198-8.785-21.213C70.001,91.986,73.122,84.453,78.788,78.787z"/>
	</g>
</g>
</svg>
