<?xml version="1.0" encoding="utf-8"?>
<!-- Generator: Adobe Illustrator 15.0.0, SVG Export Plug-In . SVG Version: 6.00 Build 0)  -->
<!DOCTYPE svg PUBLIC "-//W3C//DTD SVG 1.1//EN" "http://www.w3.org/Graphics/SVG/1.1/DTD/svg11.dtd">
<svg version="1.1" id="Layer_1" xmlns="http://www.w3.org/2000/svg" xmlns:xlink="http://www.w3.org/1999/xlink" x="0px" y="0px"
	 width="216px" height="84px" viewBox="0 0 216 84" enable-background="new 0 0 216 84" xml:space="preserve">
<path fill="#202020" d="M20,40c11.046,0,20-8.953,20-20C40,8.955,31.046,0,20,0C8.955,0,0,8.955,0,20C0,31.046,8.955,40,20,40
	 M15.275,25.421c0,0-3.457-0.065-4.453-3.291c0,0,1.727,0.135,2.027-0.197c0,0-3.723-0.897-3.756-4.788c0,0,1.13,0.565,2.16,0.6
	c0,0-3.589-2.593-1.413-6.465c0,0,3.624,4.802,9.921,5.133c0,0-0.853-2.837,1.761-5.006c2.615-2.174,5.851-0.333,6.47,0.488
	c0,0,1.84-0.291,3.124-1.155c0,0-0.42,1.659-1.97,2.658c0,0,1.816-0.241,2.659-0.73c0,0-0.886,1.42-2.416,2.506
	c0,0,0.644,5.994-4.507,10.945c-5.154,4.954-13.628,3.923-16.687,1.329C8.196,27.45,12.35,27.916,15.275,25.421"/>
<path fill="#202020" d="M108,40c11.045,0,20-8.953,20-20c0-11.045-8.955-20-20-20C96.954,0,88,8.955,88,20
	C88,31.046,96.954,40,108,40 M103.167,28.687h-3.619V17.082h3.619V28.687z M105.435,17.082h3.468v1.642
	c0.931-1.523,2.688-2.386,5.361-1.642c2.672,0.746,2.453,5.312,2.453,5.312v6.292h-3.636v-5.97c0-0.676,0.151-2.725-2.013-2.725
	c-2.167,0-2.031,2.708-2.031,2.708v5.987h-3.604L105.435,17.082L105.435,17.082z M101.373,11.312c1.157,0,2.095,0.938,2.095,2.097
	c0,1.159-0.938,2.095-2.095,2.095c-1.158,0-2.096-0.936-2.096-2.095C99.277,12.25,100.215,11.312,101.373,11.312"/>
<g>
	<path fill="#202020" d="M147.517,20.65h-3.817v3.815h3.845c0,0,1.752-0.255,1.752-1.908
		C149.295,20.906,147.517,20.65,147.517,20.65z"/>
	<path fill="#202020" d="M148.672,16.875c0,0-0.084-1.568-1.469-1.568h-3.506v3.137h3.223
		C146.921,18.443,148.672,18.501,148.672,16.875z"/>
	<path fill="#202020" d="M152,0c-11.045,0-20,8.954-20,20c0,11.046,8.955,20,20,20s20-8.954,20-20C172,8.954,163.045,0,152,0z
		 M155.483,13.809h5.652v1.499h-5.652V13.809z M152.347,22.712c0,4.325-4.55,4.153-4.55,4.153h-7.18V12.906h7.915
		c1.326,0.226,3.05,0.762,3.166,3.25c0.111,2.487-1.84,3.107-1.84,3.107C152.581,20.094,152.347,22.712,152.347,22.712z
		 M163.371,22.558h-7.349c0.027,1.118,0.818,2.501,2.431,2.501s2.259-1.357,2.259-1.357h2.518c-0.34,0.82-1.272,3.393-4.721,3.393
		c-3.447,0-4.805-2.487-5.059-3.418c-0.254-0.936-0.254-1.952-0.254-1.952c0.254-5.2,5.087-5.313,5.087-5.313
		C163.851,16.41,163.371,22.558,163.371,22.558z"/>
	<path fill="#202020" d="M158.31,18.588c-1.979,0-2.289,2.062-2.289,2.062h4.521C160.289,18.417,158.31,18.588,158.31,18.588z"/>
</g>
<g>
	<path fill="#202020" d="M196,0c-11.045,0-20,8.954-20,20c0,11.045,8.955,20,20,20s20-8.955,20-20C216,8.954,207.045,0,196,0z
		 M196,31.767c-6.498,0-11.769-5.268-11.769-11.767c0-6.498,5.271-11.767,11.769-11.767c6.497,0,11.765,5.269,11.765,11.767
		C207.765,26.499,202.497,31.767,196,31.767z"/>
	<path fill="#202020" d="M197.218,15.936c2.051-0.786,3.926-1.924,5.158-3.56c-1.727-1.445-3.949-2.316-6.377-2.316
		c-0.777,0-1.536,0.088-2.261,0.256c0.635,0.85,1.669,2.334,2.815,4.392C196.767,15.089,196.99,15.499,197.218,15.936z"/>
	<path fill="#202020" d="M198.091,17.71c0.243,0.521,0.488,1.069,0.732,1.648c2.051-0.398,4.424-0.425,7.105,0.21
		c-0.093-2.178-0.886-4.175-2.162-5.769C202.324,15.592,200.286,16.842,198.091,17.71z"/>
	<path fill="#202020" d="M191.776,11c-2.707,1.274-4.747,3.731-5.45,6.709c1.418,0,5.259-0.106,8.987-1.147
		C193.726,13.561,192.272,11.628,191.776,11z"/>
	<path fill="#202020" d="M199.56,21.215c0.779,2.07,1.5,4.416,2.041,6.994c2.207-1.509,3.776-3.885,4.213-6.639
		C203.628,21.008,201.538,20.89,199.56,21.215z"/>
	<path fill="#202020" d="M192.476,22.152c1.158-0.844,2.631-1.696,4.42-2.29c-0.228-0.521-0.455-1.022-0.682-1.504
		c-3.977,1.185-8.043,1.324-9.736,1.324c-0.158,0-0.297-0.001-0.412-0.002c-0.002,0.106-0.006,0.212-0.006,0.32
		c0,2.415,0.861,4.623,2.289,6.345C189.009,25.406,190.375,23.687,192.476,22.152z"/>
	<path fill="#202020" d="M193.64,23.744c-2.135,1.558-3.418,3.33-3.863,4.006c1.703,1.367,3.867,2.188,6.225,2.188
		c1.344,0,2.623-0.266,3.789-0.748c-0.543-2.774-1.309-5.289-2.156-7.509C196.238,22.133,194.905,22.818,193.64,23.744z"/>
</g>
<linearGradient id="SVGID_1_" gradientUnits="userSpaceOnUse" x1="-156.5264" y1="802.0527" x2="-163.4735" y2="762.6537" gradientTransform="matrix(1 0 0 1 180 -718.3516)">
	<stop  offset="0" style="stop-color:#66F1FA"/>
	<stop  offset="0.6" style="stop-color:#202020"/>
</linearGradient>
<path fill="url(#SVGID_1_)" d="M20,84c11.046,0,20-8.951,20-19.997S31.046,44,20,44C8.955,44,0,52.957,0,64.003S8.955,84,20,84
	 M15.275,69.425c0,0-3.457-0.065-4.453-3.29c0,0,1.727,0.133,2.027-0.198c0,0-3.723-0.897-3.756-4.788c0,0,1.13,0.566,2.16,0.6
	c0,0-3.589-2.592-1.413-6.467c0,0,3.624,4.806,9.921,5.137c0,0-0.853-2.84,1.761-5.008c2.615-2.176,5.851-0.334,6.47,0.486
	c0,0,1.84-0.289,3.124-1.152c0,0-0.42,1.658-1.97,2.656c0,0,1.816-0.242,2.659-0.729c0,0-0.886,1.42-2.416,2.507
	c0,0,0.644,5.993-4.507,10.945c-5.154,4.951-13.628,3.923-16.687,1.33C8.196,71.453,12.35,71.92,15.275,69.425"/>
<linearGradient id="SVGID_2_" gradientUnits="userSpaceOnUse" x1="-68.5269" y1="802.0518" x2="-75.474" y2="762.6527" gradientTransform="matrix(1 0 0 1 180 -718.3516)">
	<stop  offset="0" style="stop-color:#66F1FA"/>
	<stop  offset="0.6" style="stop-color:#202020"/>
</linearGradient>
<path fill="url(#SVGID_2_)" d="M108,84c11.045,0,20-8.951,20-19.996C128,52.957,119.045,44,108,44c-11.046,0-20,8.957-20,20.004
	C88,75.049,96.954,84,108,84 M103.167,72.689h-3.619V61.086h3.619V72.689z M105.435,61.086h3.468v1.64
	c0.931-1.521,2.688-2.385,5.361-1.64c2.672,0.744,2.453,5.312,2.453,5.312v6.291h-3.636v-5.97c0-0.677,0.151-2.726-2.013-2.726
	c-2.167,0-2.031,2.707-2.031,2.707v5.986h-3.604L105.435,61.086L105.435,61.086z M101.373,55.314c1.157,0,2.095,0.938,2.095,2.098
	c0,1.158-0.938,2.094-2.095,2.094c-1.158,0-2.096-0.938-2.096-2.094C99.277,56.255,100.215,55.314,101.373,55.314"/>
<linearGradient id="SVGID_3_" gradientUnits="userSpaceOnUse" x1="-24.5273" y1="802.0518" x2="-31.4746" y2="762.6528" gradientTransform="matrix(1 0 0 1 180 -718.3516)">
	<stop  offset="0" style="stop-color:#66F1FA"/>
	<stop  offset="0.6" style="stop-color:#202020"/>
</linearGradient>
<path fill="url(#SVGID_3_)" d="M148.672,60.879c0,0-0.084-1.569-1.469-1.569h-3.506v3.138h3.223
	C146.921,62.447,148.672,62.505,148.672,60.879z M158.31,62.591c-1.979,0-2.289,2.062-2.289,2.062h4.521
	C160.289,62.418,158.31,62.591,158.31,62.591z M147.517,64.652h-3.817v3.813h3.845c0,0,1.752-0.254,1.752-1.906
	C149.296,64.908,147.517,64.652,147.517,64.652z M152,44c-11.045,0-20,8.956-20,20.004C132,75.048,140.955,84,152,84
	s20-8.952,20-19.996C172,52.956,163.045,44,152,44z M155.483,57.812h5.652v1.498h-5.652V57.812z M152.347,66.717
	c0,4.324-4.55,4.152-4.55,4.152h-7.18V56.908h7.915c1.326,0.227,3.05,0.761,3.166,3.25c0.111,2.487-1.84,3.107-1.84,3.107
	C152.581,64.098,152.347,66.717,152.347,66.717z M163.371,66.561h-7.349c0.027,1.117,0.818,2.501,2.431,2.501
	s2.259-1.356,2.259-1.356h2.518c-0.34,0.82-1.272,3.392-4.721,3.392c-3.447,0-4.805-2.487-5.059-3.418
	c-0.254-0.937-0.254-1.95-0.254-1.95c0.254-5.201,5.087-5.313,5.087-5.313C163.851,60.414,163.371,66.561,163.371,66.561z"/>
<linearGradient id="SVGID_4_" gradientUnits="userSpaceOnUse" x1="19.4736" y1="802.0518" x2="12.5265" y2="762.6527" gradientTransform="matrix(1 0 0 1 180 -718.3516)">
	<stop  offset="0" style="stop-color:#66F1FA"/>
	<stop  offset="0.6" style="stop-color:#202020"/>
</linearGradient>
<path fill="url(#SVGID_4_)" d="M192.476,66.154c1.158-0.842,2.631-1.693,4.42-2.289c-0.228-0.521-0.455-1.022-0.682-1.504
	c-3.977,1.188-8.043,1.325-9.736,1.325c-0.158,0-0.297-0.001-0.412-0.002c-0.002,0.105-0.006,0.212-0.006,0.319
	c0,2.413,0.861,4.622,2.289,6.344C189.009,69.408,190.375,67.689,192.476,66.154z M193.64,67.746
	c-2.135,1.559-3.418,3.33-3.863,4.007c1.703,1.366,3.867,2.187,6.225,2.187c1.344,0,2.623-0.268,3.789-0.748
	c-0.543-2.773-1.309-5.287-2.156-7.507C196.238,66.136,194.905,66.822,193.64,67.746z M197.218,59.939
	c2.051-0.787,3.926-1.926,5.158-3.562c-1.727-1.445-3.949-2.315-6.377-2.315c-0.777,0-1.536,0.089-2.261,0.257
	c0.635,0.849,1.669,2.336,2.815,4.392C196.767,59.09,196.99,59.5,197.218,59.939z M191.776,55.003
	c-2.707,1.272-4.747,3.731-5.45,6.71c1.418,0,5.259-0.105,8.987-1.146C193.726,57.562,192.272,55.631,191.776,55.003z
	 M199.56,65.218c0.779,2.071,1.5,4.417,2.041,6.993c2.207-1.508,3.776-3.883,4.213-6.637
	C203.628,65.012,201.538,64.895,199.56,65.218z M196,44c-11.045,0-20,8.956-20,20.004C176,75.047,184.955,84,196,84
	s20-8.953,20-19.996C216,52.956,207.045,44,196,44z M196,75.768c-6.498,0-11.769-5.266-11.769-11.764
	c0-6.499,5.271-11.77,11.769-11.77c6.497,0,11.765,5.271,11.765,11.77C207.765,70.502,202.497,75.768,196,75.768z M198.091,61.714
	c0.243,0.521,0.488,1.067,0.732,1.646c2.051-0.396,4.424-0.425,7.105,0.211c-0.093-2.177-0.886-4.176-2.162-5.769
	C202.324,59.594,200.286,60.845,198.091,61.714z"/>
<path fill="#202020" d="M64,0C52.954,0,44,8.954,44,20s8.954,20,20,20s20-8.954,20-20S75.046,0,64,0z M66.613,28.656
	c-0.422-0.127-0.42-0.502-0.42-0.502s0.032-1.949,0.032-2.633c0-0.682-0.585-1.461-0.585-1.461c3.445-0.277,3.997-2.536,3.997-4.16
	c0-1.625-0.926-2.502-0.926-2.502c0.325-1.382-0.065-2.275-0.065-2.275c-1.576,0.179-2.355,0.959-2.355,0.959
	s-1.024-0.374-2.324-0.374c-1.299,0-2.145,0.357-2.145,0.357c-1.235-1.073-2.421-0.927-2.421-0.927
	c-0.39,1.105-0.024,2.308-0.024,2.308c-0.975,1-0.951,2.656-0.951,2.656c0.146,3.925,3.973,3.985,3.973,3.985
	c-0.585,0.512-0.464,1.243-0.464,1.243c-0.06,0.013-0.158,0.073-0.389,0.183c-0.232,0.11-0.719,0.024-0.719,0.024
	c-1.048,0-1.353-0.755-1.572-1.023c-0.219-0.268-0.426-0.512-0.695-0.671c-0.268-0.158-1.047-0.316-0.974,0.049
	c0.072,0.366,0.73,0.184,1.146,1.195c0.415,1.012,0.805,1.316,1.352,1.523c0.548,0.206,1.744,0.023,1.744,0.023v1.755
	c-0.11,0.255-0.403,0.255-0.403,0.255l-0.013,0.019c-3.628-1.106-6.268-4.479-6.268-8.471c0-4.891,3.966-8.855,8.856-8.855
	c4.891,0,8.856,3.965,8.856,8.855C72.855,24.174,70.229,27.54,66.613,28.656z"/>
<linearGradient id="SVGID_5_" gradientUnits="userSpaceOnUse" x1="67.4736" y1="83.6992" x2="60.5267" y2="44.3011">
	<stop  offset="0" style="stop-color:#66F1FA"/>
	<stop  offset="0.6" style="stop-color:#202020"/>
</linearGradient>
<path fill="url(#SVGID_5_)" d="M64,44c-11.046,0-20,8.954-20,20s8.954,20,20,20s20-8.954,20-20S75.046,44,64,44z M66.613,72.656
	c-0.422-0.127-0.42-0.502-0.42-0.502s0.032-1.949,0.032-2.633c0-0.682-0.585-1.461-0.585-1.461c3.445-0.277,3.997-2.536,3.997-4.16
	c0-1.625-0.926-2.502-0.926-2.502c0.325-1.382-0.065-2.275-0.065-2.275c-1.576,0.179-2.355,0.959-2.355,0.959
	s-1.024-0.374-2.324-0.374c-1.299,0-2.145,0.357-2.145,0.357c-1.235-1.073-2.421-0.927-2.421-0.927
	c-0.39,1.105-0.024,2.308-0.024,2.308c-0.975,1-0.951,2.656-0.951,2.656c0.146,3.925,3.973,3.985,3.973,3.985
	c-0.585,0.512-0.464,1.243-0.464,1.243c-0.06,0.013-0.158,0.073-0.389,0.183c-0.232,0.11-0.719,0.024-0.719,0.024
	c-1.048,0-1.353-0.755-1.572-1.023c-0.219-0.268-0.426-0.512-0.695-0.671c-0.268-0.158-1.047-0.316-0.974,0.049
	c0.072,0.366,0.73,0.184,1.146,1.195c0.415,1.012,0.805,1.316,1.352,1.523c0.548,0.206,1.744,0.023,1.744,0.023v1.755
	c-0.11,0.255-0.403,0.255-0.403,0.255l-0.013,0.019c-3.628-1.106-6.268-4.479-6.268-8.471c0-4.891,3.966-8.855,8.856-8.855
	c4.891,0,8.856,3.965,8.856,8.855C72.855,68.174,70.229,71.54,66.613,72.656z"/>
</svg>
