<?xml version="1.0" encoding="utf-8"?>
<!-- Generator: Adobe Illustrator 15.0.0, SVG Export Plug-In . SVG Version: 6.00 Build 0)  -->
<!DOCTYPE svg PUBLIC "-//W3C//DTD SVG 1.1//EN" "http://www.w3.org/Graphics/SVG/1.1/DTD/svg11.dtd">
<svg version="1.1" id="frame_base_shear2" xmlns="http://www.w3.org/2000/svg" xmlns:xlink="http://www.w3.org/1999/xlink" x="0px"
	 y="0px" width="1073.567px" height="220.105px" viewBox="0 0 1073.567 220.105" enable-background="new 0 0 1073.567 220.105"
	 xml:space="preserve">
<path display="none" d="M502.326,7.274l-9.499-8.825L10.142,11.088v199.367l11.039,11.204l481.146-12.601L502.326,7.274
	L502.326,7.274z M19.74,20.762l9.176,9.314l0.266-0.264v171.375l-9.442,0.246V20.762z M501.345,208.104L21.599,220.666l-9.298-9.438
	l479.474-12.553V17.259l-0.072,0.002v-0.026l-9.571,0.25v0.027L29.608,29.362l-9.193-9.333l480.93-12.592V208.104z M30.163,201.164
	V30.329L482.13,18.494v170.835L30.163,201.164z"/>
<linearGradient id="SVGID_1_" gradientUnits="userSpaceOnUse" x1="219.7319" y1="160.9797" x2="98.8385" y2="493.1317" gradientTransform="matrix(1 0 0 -1 90 437.106)">
	<stop  offset="0" style="stop-color:#66F1FA"/>
	<stop  offset="0.0497" style="stop-color:#60DEE6"/>
	<stop  offset="0.233" style="stop-color:#499BA0"/>
	<stop  offset="0.3982" style="stop-color:#376669"/>
	<stop  offset="0.5395" style="stop-color:#2B4041"/>
	<stop  offset="0.6514" style="stop-color:#232929"/>
	<stop  offset="0.72" style="stop-color:#202020"/>
</linearGradient>
<path fill="url(#SVGID_1_)" d="M216.6,153.117v-6.979l5.184-7.681h-2.13l-4.036,6.029l-4.064-6.029h-2.131l5.184,7.681v6.979H216.6z
	 M191.689,67.752v63.061h10.541v-26.304h26.215v26.304h10.543V67.752h-10.543v26.125H202.23V67.752H191.689z M13.503,25.646v167.461
	l9.666-0.252V35.059L489.035,22.86v175.512L3.938,211.073l9.277,9.032l485.354-12.709V12.944L13.503,25.646z M381.696,153.117
	v-6.979l5.184-7.681h-2.13l-4.036,6.029l-4.062-6.029h-2.13l5.184,7.681v6.979H381.696z M103.014,125.588l2.07,5.225h11.352
	L91.211,67.752l-25.135,63.061H77.43l2.07-5.225H103.014z M91.211,96.13l7.568,18.919H83.734L91.211,96.13z M191.685,153.117h5.262
	c1.643,0,2.911-0.357,3.801-1.071c0.889-0.713,1.335-1.725,1.335-3.033c0-0.995-0.27-1.825-0.81-2.489
	c-0.539-0.664-1.297-1.102-2.272-1.311c0.812-0.13,1.427-0.462,1.845-0.991c0.42-0.53,0.629-1.243,0.629-2.14
	c0-1.16-0.411-2.055-1.229-2.684c-0.818-0.628-1.983-0.941-3.494-0.941h-5.067V153.117z M193.667,140.088h2.938
	c0.969,0,1.69,0.183,2.165,0.549c0.474,0.367,0.711,0.919,0.711,1.658c0,0.747-0.237,1.303-0.711,1.665
	c-0.475,0.363-1.196,0.545-2.165,0.545h-2.938V140.088z M193.667,146.116h3.181c1.068,0,1.859,0.217,2.374,0.652
	c0.512,0.436,0.77,1.11,0.77,2.027c0,0.909-0.257,1.585-0.77,2.028c-0.515,0.439-1.306,0.66-2.374,0.66h-3.181V146.116z
	 M166.602,76.048c3.344,0,6.809,1.704,9.484,4.38l6.326-6.325c-4.318-4.378-9.852-7.113-15.811-7.113
	c-11.797,0-21.285,9.546-21.285,21.281c0,11.737,9.488,21.285,21.285,21.285c5.959,0,11.492-2.737,15.811-7.056l-6.326-6.385
	c-2.676,2.676-6.141,4.378-9.484,4.378c-6.691,0-12.223-5.474-12.223-12.224C154.379,81.523,159.91,76.048,166.602,76.048z
	 M485.066,26.995l-9.666,0.253v157.796l-465.866,12.2V21.731l484.95-12.698L485.205,0L0,12.706v194.452l485.066-12.701V26.995z
	 M123.729,67.752v63.061h39.998v-10.541h-29.459v-52.52H123.729z M426.601,140.126v-1.67h-9.268v14.66h9.443v-1.669h-7.462v-5.312
	h6.98v-1.672h-6.98v-4.339L426.601,140.126L426.601,140.126z M322.908,138.457h-2.672v14.66h1.926v-12.265l6.498,12.265h2.67v-14.66
	h-1.924v12.264L322.908,138.457z M243.18,138.457v14.66h9.125v-1.669h-7.143v-12.991H243.18z M334.662,89.858L315.57,67.663h-10.72
	v63.149h10.541V85.266l19.271,22.547l19.27-22.547v45.547h10.541V67.663h-10.719L334.662,89.858z M298.092,153.117h2.092
	l1.336-3.761h6.606l1.336,3.761h2.062l-5.587-14.66h-2.248L298.092,153.117z M307.507,147.707h-5.39l2.691-7.296L307.507,147.707z
	 M413.896,67.752l-16.035,22.521l-16.125-22.521h-12.884l23.691,33.242v29.817h10.541v-29.817l23.695-33.242H413.896z
	 M365.911,153.117v-14.66h-1.982v6.009h-7.208v-6.009h-1.979v14.66h1.979v-6.979h7.208v6.979H365.911z M293.766,78.292v-10.54H251.7
	v63.061h42.066v-10.541h-31.531v-15.763h26.217V94.058h-26.217V78.292H293.766z M395.489,138.457v14.66h4.073
	c2.827,0,4.908-0.593,6.243-1.778c1.336-1.185,2.004-3.039,2.004-5.566c0-2.514-0.665-4.36-1.993-5.542
	c-1.329-1.183-3.412-1.772-6.254-1.772L395.489,138.457L395.489,138.457z M404.31,141.457c0.939,0.913,1.408,2.352,1.408,4.314
	c0,1.978-0.469,3.425-1.408,4.34c-0.938,0.915-2.419,1.374-4.441,1.374h-2.396v-11.396h2.396
	C401.891,140.088,403.37,140.544,404.31,141.457z M288.956,144.221c0.419-0.53,0.629-1.243,0.629-2.14
	c0-1.16-0.411-2.055-1.228-2.684c-0.819-0.628-1.984-0.941-3.494-0.941h-5.067v14.66h5.263c1.642,0,2.909-0.357,3.8-1.071
	c0.89-0.713,1.335-1.726,1.335-3.033c0-0.995-0.271-1.825-0.811-2.489c-0.539-0.664-1.297-1.102-2.271-1.311
	C287.922,145.082,288.537,144.75,288.956,144.221z M287.332,146.769c0.513,0.436,0.77,1.11,0.77,2.027
	c0,0.909-0.257,1.585-0.77,2.028c-0.516,0.439-1.307,0.66-2.372,0.66h-3.181v-5.369h3.181
	C286.025,146.116,286.816,146.332,287.332,146.769z M286.88,143.96c-0.475,0.363-1.195,0.545-2.165,0.545h-2.936v-4.417h2.936
	c0.97,0,1.69,0.183,2.165,0.549c0.475,0.367,0.71,0.919,0.71,1.658C287.59,143.042,287.354,143.598,286.88,143.96z M270.255,140.126
	v-1.67h-9.269v14.66h9.443v-1.669h-7.462v-5.312h6.981v-1.672h-6.981v-4.339L270.255,140.126L270.255,140.126z"/>
<line fill="none" stroke="#9A9A9A" stroke-width="3" stroke-miterlimit="10" x1="559.993" y1="204.141" x2="559.993" y2="15.964"/>
<g>
	<path fill="#202020" d="M624.614,101.477c-0.084-0.541-0.188-0.875-0.312-1c0.291-0.75,0.512-1.488,0.656-2.219
		c0.146-0.729,0.26-1.427,0.344-2.094c0.084-0.583,0.178-1.125,0.281-1.625c0.105-0.5,0.24-0.979,0.406-1.438
		c0.709-0.166,1.24-0.469,1.594-0.905c0.355-0.438,0.635-0.822,0.844-1.156c0.75-0.041,1.24,0.062,1.471,0.312
		c0.229,0.25,0.488,0.667,0.779,1.25c0.209,0.459,0.5,0.948,0.875,1.47c0.375,0.521,0.939,0.928,1.689,1.219
		c0.125,0.459,0.27,0.896,0.438,1.312c0.166,0.417,0.354,0.854,0.562,1.312c0.375,0.875,0.729,1.781,1.061,2.719
		c0.334,0.938,0.521,1.823,0.562,2.656c-0.5,0.959-0.885,2.062-1.156,3.312c-0.27,1.25-0.438,2.512-0.5,3.781
		c-0.061,1.271-0.031,2.49,0.094,3.655c0.125,1.167,0.334,2.146,0.625,2.938l0.375,1l1.375-0.125c1.5-0.375,2.855-0.802,4.062-1.28
		c1.209-0.479,2.334-1.053,3.375-1.72c1.041-0.666,2.041-1.426,3-2.278c0.959-0.854,1.959-1.864,3-3.032
		c1-1.166,1.896-2.489,2.688-3.969s1.447-3.011,1.971-4.595c0.52-1.583,0.926-3.166,1.219-4.75c0.291-1.583,0.479-3.062,0.561-4.438
		c0.791-0.375,1.23-0.979,1.312-1.812l-0.188-0.812c-0.125-0.208-0.178-0.406-0.156-0.594c0.021-0.188,0.072-0.364,0.156-0.531
		c0.332-0.958,1.041-1.666,2.125-2.125c0.75,0.5,1.447,1.042,2.094,1.625c0.646,0.584,1.238,1.167,1.781,1.75
		c0.082,1.125,0.25,2.094,0.5,2.906c0.25,0.812,0.521,1.594,0.812,2.344c0.291,0.709,0.551,1.396,0.781,2.062
		c0.229,0.667,0.385,1.479,0.469,2.438c-0.418,1.25-0.719,2.428-0.906,3.531s-0.365,2.261-0.531,3.469l-0.125,0.688
		c-0.75,1.292-1.49,2.615-2.219,3.969c-0.729,1.354-1.324,2.529-1.781,3.529c-0.25,0.25-0.469,0.542-0.656,0.875
		c-0.188,0.334-0.365,0.667-0.531,1c-0.084,0.125-0.197,0.334-0.344,0.625c-0.146,0.292-0.281,0.5-0.406,0.625l-1.5-0.562
		l-0.375,1.938l-1,0.25l-0.75,0.875c-0.959,1.667-1.969,3.062-3.031,4.188c-1.061,1.126-2.25,2.125-3.561,3
		c-1.312,0.875-2.793,1.698-4.439,2.469c-1.645,0.771-3.531,1.594-5.656,2.469c-0.834-0.125-1.553-0.196-2.154-0.219
		c-0.605-0.021-1.199-0.052-1.781-0.094c-0.584,0-1.146-0.021-1.689-0.062c-0.541-0.041-1.166-0.104-1.875-0.188
		c-0.166-0.375-0.395-0.646-0.688-0.812c-0.291-0.166-0.562-0.25-0.812-0.25c-0.834-0.416-1.459-1-1.875-1.75
		s-0.854-1.583-1.311-2.5c-0.209-0.5-0.428-1-0.656-1.5s-0.512-0.979-0.844-1.438l1.25-0.375l-1.625-1.875
		c-0.125-0.125-0.262-0.25-0.406-0.375c-0.146-0.125-0.281-0.271-0.406-0.438v-1.188c-0.168-3.416-0.24-6.57-0.219-9.466
		c0.021-2.896,0.406-5.447,1.156-7.656L624.614,101.477z"/>
	<path fill="#202020" d="M667.864,134.538c-1.625-1.209-2.822-2.697-3.594-4.469s-0.863-3.531-0.281-5.281
		c0.084-1.291,0.406-2.531,0.969-3.719c0.564-1.188,1.25-2.322,2.062-3.406c0.812-1.083,1.697-2.104,2.656-3.062
		c0.957-0.958,1.854-1.852,2.688-2.685c0.166-0.5,0.459-0.938,0.875-1.313c0.416-0.375,0.865-0.738,1.344-1.093
		c0.48-0.354,0.959-0.739,1.439-1.156c0.479-0.416,0.863-0.896,1.154-1.438c-0.166-0.583-0.438-1.166-0.811-1.75
		c-0.375-0.583-0.793-1.166-1.25-1.75c-0.459-0.583-0.939-1.166-1.439-1.75c-0.5-0.583-0.959-1.188-1.375-1.812
		c-0.041-0.208-0.197-0.271-0.469-0.188c-0.27,0.084-0.469,0.062-0.594-0.062c0.084-0.666-0.053-1.385-0.406-2.155
		c-0.354-0.771-0.822-1.428-1.406-1.97c0.209-0.5,0.406-1.146,0.596-1.938c0.188-0.791,0.135-1.646-0.156-2.562
		c-0.043-0.416,0.01-0.812,0.156-1.188c0.145-0.375,0.301-0.729,0.469-1.062c0.166-0.333,0.291-0.655,0.375-0.969
		c0.082-0.312,0.061-0.635-0.062-0.969c0.625-0.083,1.197-0.052,1.719,0.094c0.521,0.146,1,0.312,1.438,0.5
		c0.439,0.188,0.855,0.344,1.25,0.469c0.396,0.125,0.781,0.104,1.156-0.062c-0.084,0.25-0.094,0.428-0.031,0.531
		s0.146,0.188,0.25,0.25c0.105,0.062,0.209,0.114,0.312,0.155c0.104,0.042,0.156,0.146,0.156,0.312
		c0.791,0.25,1.656,0.792,2.594,1.625c0.938,0.834,1.844,1.75,2.719,2.75s1.666,1.99,2.375,2.969
		c0.709,0.979,1.229,1.74,1.562,2.281c1.207-0.75,2.51-1.646,3.906-2.688c1.396-1.041,2.832-2.104,4.312-3.188
		c1.479-1.083,2.979-2.114,4.5-3.094c1.52-0.979,3.01-1.761,4.469-2.345c0.832,0.375,1.488,0.854,1.969,1.438
		c0.479,0.584,0.875,1.198,1.188,1.844c0.312,0.646,0.604,1.292,0.875,1.938c0.271,0.646,0.635,1.219,1.094,1.719
		c-0.416,0.834-0.854,1.531-1.312,2.094s-0.791,1.24-1,2.031c-1.041,0.417-2.291,1.084-3.75,2c-1.25,0.792-2.834,1.875-4.75,3.25
		s-4.188,3.188-6.811,5.438c0.625,0.709,1.135,1.375,1.531,2c0.395,0.625,0.719,1.167,0.969,1.625c0.291,0.54,0.52,1.04,0.688,1.498
		c0.457,0.334,0.832,0.729,1.125,1.188c0.291,0.459,0.572,0.928,0.844,1.406s0.572,0.928,0.906,1.344
		c0.332,0.417,0.771,0.75,1.312,1c0.166,0.75,0.375,1.448,0.625,2.094c0.25,0.646,0.488,1.281,0.719,1.906
		c0.229,0.625,0.416,1.24,0.562,1.844c0.145,0.604,0.195,1.219,0.154,1.844c-0.334,1.125-0.834,2.062-1.5,2.812
		s-1.145,1.521-1.438,2.312c-0.459,0.125-0.906,0.262-1.344,0.406c-0.438,0.146-0.803,0.364-1.094,0.656l-4.25-3
		c-0.75-2.5-1.834-4.896-3.25-7.188c-1.418-2.291-2.793-4.271-4.125-5.938c-2,1.542-3.918,3.25-5.75,5.125
		c-1.834,1.875-3.5,3.875-5,6c-0.084,1.042-0.209,1.906-0.375,2.594c-0.168,0.688-0.438,1.261-0.812,1.719
		c-0.373,0.458-0.854,0.854-1.438,1.188C669.467,133.871,668.739,134.204,667.864,134.538z"/>
	<path fill="#202020" d="M760.051,113.788c0.625,0.084,1.072,0.229,1.346,0.438c0.27,0.209,0.445,0.47,0.529,0.781
		c0.084,0.312,0.115,0.656,0.096,1.031c-0.021,0.375-0.031,0.75-0.031,1.125c-0.625,0.417-1.406,0.761-2.344,1.031
		c-0.939,0.271-1.971,0.479-3.096,0.625c-1.125,0.146-2.303,0.25-3.529,0.312c-1.23,0.062-2.449,0.115-3.656,0.156
		c-0.209,1.167-0.459,2.406-0.75,3.719c-0.293,1.312-0.771,2.906-1.439,4.781c-0.584,1.292-1.25,2.198-2,2.719
		c-0.75,0.521-1.529,0.781-2.344,0.781c-0.812,0-1.635-0.197-2.469-0.594s-1.625-0.845-2.375-1.345
		c-0.084-0.541-0.104-1.188-0.062-1.938s0.105-1.553,0.189-2.406c0.082-0.854,0.197-1.708,0.344-2.562
		c0.146-0.854,0.281-1.697,0.406-2.531c-1.334,0.209-2.406,0.396-3.219,0.562c-0.812,0.167-1.387,0.312-1.721,0.438
		c-0.791-0.041-1.416-0.188-1.875-0.438s-0.834-0.552-1.125-0.905c-0.291-0.354-0.541-0.761-0.75-1.22
		c-0.209-0.458-0.459-0.938-0.75-1.438c0.166-0.333,0.197-0.812,0.096-1.438c-0.105-0.625-0.346-1.104-0.721-1.438
		c0.334-0.041,0.584-0.281,0.75-0.719c0.166-0.437,0.166-0.758,0-0.967c0.666-0.166,1.387-0.281,2.156-0.344
		c0.771-0.062,1.531-0.114,2.281-0.156c0.75-0.041,1.459-0.114,2.125-0.219s1.25-0.281,1.75-0.531c0.584,0,1.135-0.01,1.656-0.031
		c0.521-0.021,1.072-0.03,1.656-0.03c0.125-0.542,0.104-1-0.062-1.375s-0.209-0.708-0.125-1c0.084-0.208,0.24-0.345,0.469-0.406
		c0.23-0.062,0.365-0.197,0.406-0.406c0.166-0.541,0.209-0.969,0.125-1.28c-0.084-0.312,0-0.72,0.25-1.22
		c0.209-0.333,0.49-0.854,0.844-1.562c0.355-0.708,0.49-1.458,0.406-2.25c0.416-0.291,0.803-0.625,1.156-1s0.729-0.719,1.125-1.031
		c0.396-0.312,0.834-0.583,1.312-0.812c0.479-0.229,1.072-0.345,1.781-0.345c0.375,0.459,0.645,0.896,0.811,1.312
		c0.166,0.417,0.334,0.812,0.5,1.188c0.166,0.375,0.387,0.729,0.656,1.062c0.271,0.334,0.678,0.646,1.219,0.938
		c0,0.375-0.061,0.834-0.188,1.375c-0.125,0.542-0.229,1.084-0.312,1.625c-0.084,0.542-0.104,1.021-0.061,1.438
		c0.041,0.417,0.25,0.709,0.625,0.875c-0.168,0.459-0.324,0.906-0.469,1.344c-0.146,0.438-0.281,0.865-0.406,1.282
		c0.707,0.125,1.52,0.198,2.438,0.219c0.916,0.021,1.791,0.104,2.625,0.25c0.832,0.146,1.594,0.396,2.281,0.75
		C759.272,112.365,759.76,112.957,760.051,113.788z"/>
	<path fill="#202020" d="M794.114,102.227c-1.75-0.708-3.197-1.708-4.344-3c-1.146-1.291-2.072-2.812-2.781-4.562
		c0.418-1.125,1.084-2.072,2-2.844s1.947-1.428,3.094-1.97c1.146-0.541,2.365-0.979,3.656-1.312s2.541-0.625,3.75-0.875
		c0.25,0.084,0.375,0.084,0.375,0c0-0.083,0.104-0.041,0.312,0.125c1.5-0.458,3.229-0.906,5.188-1.344
		c1.959-0.438,4.041-0.595,6.25-0.47c0.291-0.166,0.646-0.26,1.062-0.28c0.416-0.021,0.854-0.031,1.312-0.031
		c0.457,0,0.895-0.01,1.311-0.031c0.416-0.021,0.771-0.094,1.062-0.219c0.25,0.292,0.625,0.469,1.125,0.531
		c0.5,0.062,1.021,0.28,1.562,0.655c0.166,0.042,0.166-0.03,0-0.219c-0.168-0.188-0.146-0.322,0.062-0.406
		c0.541,0,1.02,0.125,1.438,0.375c0.416,0.25,0.803,0.531,1.156,0.845c0.354,0.312,0.688,0.594,1,0.844s0.656,0.375,1.031,0.375
		c0.375,0.459,0.822,0.886,1.344,1.281s1.021,0.803,1.5,1.219c0.479,0.417,0.875,0.875,1.188,1.375s0.469,1.062,0.469,1.688
		c-0.041,0.25,0.041,0.396,0.25,0.438s0.354,0.167,0.438,0.375c0.041,1.542-0.197,2.875-0.719,4
		c-0.52,1.125-1.178,2.156-1.969,3.094c-0.791,0.938-1.635,1.823-2.531,2.656c-0.895,0.834-1.719,1.729-2.469,2.688
		c0.5,0.625,1.072,1.198,1.719,1.72c0.646,0.521,1.303,1.03,1.969,1.53c0.666,0.5,1.303,1.032,1.906,1.595
		c0.605,0.562,1.115,1.195,1.531,1.903c0.125,0.25,0.396,0.417,0.812,0.5c0.125,0.5,0.303,1.012,0.531,1.531
		c0.229,0.521,0.447,1.021,0.656,1.5c0.207,0.479,0.332,0.906,0.375,1.281c0.041,0.375-0.062,0.688-0.312,0.938
		c0.291,0.167,0.457,0.429,0.5,0.781c0.041,0.354,0.041,0.636,0,0.844c-0.918,1.125-1.543,1.917-1.875,2.375
		c-0.334,0.459-0.584,0.792-0.75,1c-0.168,0.209-0.334,0.396-0.5,0.562c-0.168,0.167-0.543,0.5-1.125,1
		c-2.209,1.334-4.512,2.531-6.906,3.594c-2.396,1.062-4.887,1.781-7.469,2.156c-0.209,0.292-0.512,0.531-0.906,0.719
		c-0.396,0.188-0.844,0.344-1.344,0.469s-1.031,0.229-1.594,0.312s-1.074,0.166-1.531,0.25c-0.209-0.084-0.322-0.219-0.344-0.406
		s-0.137-0.323-0.344-0.406c-0.043,0.5-0.262,0.761-0.656,0.781c-0.396,0.021-0.887-0.073-1.469-0.281
		c-0.584-0.209-1.189-0.5-1.812-0.875c-0.625-0.375-1.168-0.729-1.625-1.062c-0.209,0.375-0.469,0.771-0.781,1.188
		s-0.637,0.708-0.969,0.875c-0.584-0.084-1.012-0.146-1.281-0.188c-0.271-0.042-0.531,0.062-0.781,0.312
		c-0.334-0.167-0.584-0.344-0.75-0.53c-0.166-0.188-0.334-0.375-0.5-0.562s-0.354-0.354-0.562-0.5
		c-0.209-0.146-0.52-0.281-0.938-0.406c0.084-0.208,0.021-0.53-0.188-0.969c-0.209-0.438-0.5-0.697-0.875-0.781
		c0.207-0.333,0.125-0.76-0.25-1.28c-0.375-0.521-0.668-1.114-0.875-1.781c0.041-0.291,0.072-0.594,0.094-0.906
		c0.021-0.312,0.062-0.604,0.125-0.875c0.062-0.271,0.156-0.51,0.281-0.719c0.125-0.208,0.332-0.354,0.625-0.438
		c-0.043-0.541-0.209-1.062-0.5-1.562c0.375-0.291,0.625-0.656,0.75-1.094c0.125-0.438,0.238-0.886,0.344-1.345
		c0.104-0.458,0.238-0.905,0.406-1.344c0.166-0.438,0.438-0.802,0.812-1.094c-0.084-0.125-0.168-0.229-0.25-0.312
		c-0.084-0.083-0.125-0.229-0.125-0.438c0.625-1.041,1.061-1.927,1.311-2.656c0.25-0.728,0.447-1.435,0.596-2.123
		c0.145-0.688,0.301-1.428,0.469-2.219c0.166-0.791,0.5-1.791,1-3c-0.043-0.75,0.041-1.416,0.25-2
		c0.207-0.583,0.426-1.156,0.656-1.719c0.229-0.562,0.404-1.156,0.529-1.781s0.105-1.354-0.061-2.188
		c-0.709,0.084-1.219,0.334-1.531,0.75c-0.312,0.417-0.512,0.979-0.594,1.688c-0.375,0.334-0.855,0.49-1.439,0.469
		C795.092,101.989,794.573,102.061,794.114,102.227z M817.239,94.727c-2.584-0.083-5.125,0.146-7.625,0.688
		s-4.604,1.334-6.312,2.375c0.834,0.709,1.697,1.334,2.596,1.875c0.895,0.542,1.57,1.271,2.029,2.188c2-0.791,3.75-1.802,5.25-3.03
		C814.676,97.594,816.03,96.227,817.239,94.727z M821.614,114.288c-1.584-0.875-3.031-1.395-4.344-1.561s-2.562-0.155-3.75,0.03
		c-1.188,0.188-2.322,0.447-3.406,0.78s-2.166,0.583-3.25,0.75c-0.541,1.417-1.104,2.979-1.688,4.688s-1.146,3.375-1.688,5
		c1.5-0.208,2.875-0.521,4.125-0.938c1.25-0.416,2.457-0.885,3.625-1.406c1.166-0.521,2.311-1.041,3.438-1.562
		c1.125-0.521,2.291-1.011,3.5-1.47c0.125-0.5,0.396-0.896,0.812-1.188c0.416-0.291,0.832-0.572,1.25-0.844
		c0.416-0.271,0.77-0.572,1.061-0.906C821.592,115.33,821.698,114.872,821.614,114.288z"/>
	<path fill="#202020" d="M842.926,125.913c-0.459,1.667-0.863,2.928-1.219,3.781c-0.354,0.854-0.885,1.739-1.594,2.655
		c-0.541-0.083-0.916-0.021-1.125,0.188c-0.209,0.208-0.438,0.396-0.688,0.562c-0.375,0.083-0.646,0.083-0.812,0
		c-0.166-0.084-0.312-0.178-0.438-0.28c-0.125-0.104-0.281-0.209-0.469-0.312c-0.188-0.103-0.469-0.156-0.844-0.156
		c-0.084-0.333-0.178-0.646-0.281-0.938c-0.104-0.291-0.387-0.396-0.844-0.312c0.082-0.333,0.104-0.613,0.061-0.844
		c-0.041-0.229-0.094-0.438-0.154-0.625c-0.062-0.187-0.115-0.375-0.156-0.562c-0.043-0.188-0.021-0.428,0.061-0.72
		c-0.209,0-0.375-0.146-0.5-0.438c-0.125-0.291-0.27-0.583-0.438-0.875c0.125-0.75,0.25-1.458,0.375-2.125
		c0.125-0.666,0.281-1.291,0.469-1.875c0.189-0.583,0.344-1.166,0.469-1.75c0.125-0.583,0.062-1.188-0.188-1.812
		c0.166,0.125,0.291,0.095,0.375-0.094c0.084-0.188,0.146-0.438,0.188-0.75c0.041-0.312,0.062-0.625,0.062-0.938
		c0-0.313-0.021-0.572-0.062-0.781c0.416-1.083,0.762-2.197,1.031-3.343c0.271-1.145,0.521-2.279,0.75-3.405
		c0.23-1.125,0.469-2.229,0.719-3.312s0.584-2.083,1-3c0.459-0.083,0.971-0.03,1.531,0.156c0.562,0.188,0.906,0.428,1.031,0.719
		c1.084-0.833,2.041-1.844,2.875-3.03c0.834-1.188,1.688-2.345,2.562-3.47c0.873-1.125,1.844-2.125,2.906-3s2.406-1.396,4.031-1.562
		c0.832,0.625,1.76,1.261,2.781,1.906c1.02,0.646,1.863,1.489,2.529,2.53c0.334,0.167,0.615,0.345,0.846,0.531
		c0.229,0.188,0.51,0.386,0.844,0.594v0.75c0.5,0.459,0.906,0.99,1.219,1.595c0.312,0.604,0.594,1.25,0.844,1.938
		c0.25,0.688,0.5,1.375,0.75,2.062c0.25,0.687,0.541,1.344,0.875,1.969c-0.084,0.209-0.125,0.386-0.125,0.531
		s0.031,0.303,0.094,0.469c0.062,0.167,0.113,0.334,0.156,0.5c0.041,0.167,0.041,0.396,0,0.688
		c-0.125,1.834-0.719,3.311-1.781,4.436s-2.344,2.053-3.844,2.781s-3.104,1.344-4.812,1.844s-3.25,1.042-4.625,1.625
		c0,0.167,0.072,0.25,0.219,0.25s0.197,0.104,0.156,0.312c1,0.625,1.791,1.125,2.375,1.5s1.135,0.688,1.656,0.938
		s1.084,0.469,1.688,0.656c0.605,0.188,1.447,0.405,2.531,0.655s1.928,0.448,2.531,0.595c0.604,0.146,1.156,0.271,1.656,0.375
		c0.5,0.104,1.01,0.188,1.531,0.25c0.521,0.062,1.26,0.136,2.219,0.219c0.375,0.375,0.697,0.823,0.969,1.344
		c0.271,0.521,0.447,1.042,0.531,1.562c0.082,0.521,0.104,1.021,0.062,1.5c-0.043,0.479-0.189,0.864-0.439,1.155
		c0.041,0.125,0.137,0.179,0.281,0.156c0.146-0.021,0.303-0.01,0.469,0.031c-0.25,0.167-0.459,0.375-0.625,0.625
		s-0.334,0.5-0.5,0.75s-0.354,0.469-0.561,0.656c-0.209,0.188-0.5,0.302-0.875,0.344c-1.293,0.5-2.918,0.531-4.875,0.094
		c-1.959-0.438-4.439-1.24-7.439-2.406c-1.5-0.583-2.719-1.094-3.654-1.53c-0.938-0.438-1.75-0.875-2.439-1.312
		c-0.688-0.437-1.311-0.906-1.875-1.406C844.391,127.228,843.717,126.622,842.926,125.913z M851.864,104.477
		c-0.459,0.667-0.969,1.271-1.531,1.812c-0.561,0.542-1.104,1.094-1.625,1.656c-0.52,0.562-0.99,1.188-1.406,1.875
		s-0.709,1.49-0.875,2.406c1.459-0.166,2.98-0.571,4.562-1.219c1.584-0.646,3.084-1.26,4.5-1.844
		c-0.166-1.291-0.615-2.333-1.344-3.125C853.417,105.25,852.655,104.727,851.864,104.477z"/>
	<path fill="#202020" d="M900.551,127.163c-0.25,0.709-0.613,1.428-1.094,2.156c-0.479,0.729-1.041,1.375-1.688,1.938
		s-1.365,1.031-2.156,1.406s-1.625,0.583-2.5,0.625c-0.541-0.125-0.906-0.261-1.094-0.406s-0.387-0.281-0.594-0.406
		c-0.125-0.083-0.24-0.155-0.344-0.219c-0.104-0.062-0.199-0.114-0.281-0.156l-0.75-0.312l0.25-0.812
		c0.082-0.333,0.062-0.594-0.062-0.78c-0.123-0.188-0.375-0.447-0.75-0.781c-0.125-0.125-0.25-0.25-0.375-0.375
		s-0.229-0.25-0.312-0.375l-1.061-1.188l1.688-0.438c1.041-0.291,1.738-0.666,2.094-1.125c0.354-0.458,0.488-1.229,0.406-2.312
		c-0.834-0.166-1.531-0.188-2.094-0.062s-1.137,0.271-1.719,0.438c-0.75,0.209-1.512,0.387-2.281,0.531
		c-0.771,0.146-1.615,0.219-2.531,0.219c-0.334,0-0.646-0.01-0.938-0.03c-0.293-0.021-0.605-0.053-0.939-0.095l-0.625-0.125
		c-0.084-0.458-0.166-0.719-0.25-0.78c-0.084-0.062-0.166-0.136-0.25-0.22c-0.209-0.208-0.428-0.488-0.654-0.844
		c-0.23-0.354-0.281-0.802-0.156-1.344c-0.209-0.375-0.334-0.75-0.375-1.125c-0.25,0.5-0.439,1.021-0.562,1.562l-0.25,0.625
		l-0.625,0.125c-0.084,0.042-0.146,0.137-0.188,0.281c-0.043,0.146-0.062,0.261-0.062,0.344l-0.312,1.062
		c-0.084,0.084-0.166,0.156-0.25,0.219s-0.166,0.136-0.25,0.219c-0.084,0.375-0.188,0.75-0.312,1.125
		c-0.123,0.375-0.25,0.729-0.375,1.062c-0.209,0.542-0.385,1.073-0.529,1.594c-0.146,0.521-0.199,1.031-0.156,1.531l-0.25,0.688
		c-0.209,0.25-0.439,0.448-0.689,0.595c-0.25,0.146-0.5,0.28-0.75,0.405c-0.084,0.084-0.197,0.156-0.344,0.22
		c-0.145,0.062-0.26,0.114-0.344,0.155l-0.188,0.688l-0.75,0.125c-0.459,0.083-0.781,0.146-0.969,0.188
		c-0.188,0.041-0.406,0.062-0.656,0.062l-0.625-0.062c-0.459-0.375-0.812-0.677-1.062-0.905c-0.25-0.229-0.541-0.447-0.875-0.656
		c-0.375-0.5-0.582-0.875-0.625-1.125c-0.041-0.25-0.082-0.479-0.125-0.688c-0.082-0.25-0.135-0.458-0.156-0.625
		c-0.02-0.166-0.072-0.291-0.156-0.375l-0.811-0.75l0.688-0.562l0.062-1.062c0.834-2.125,1.719-4.166,2.656-6.125
		c0.938-1.958,1.904-3.958,2.904-6c0.334-0.666,0.656-1.332,0.971-1.998c0.311-0.666,0.635-1.333,0.969-2
		c-0.043-0.125-0.062-0.271-0.062-0.438c0-0.166,0.041-0.354,0.125-0.562c0.457-0.708,0.832-1.344,1.125-1.905
		c0.291-0.562,0.582-1.136,0.875-1.72c0.332-0.708,0.678-1.396,1.031-2.062s0.801-1.354,1.344-2.062l1-0.438
		c0.125-0.041,0.271-0.094,0.438-0.156c0.166-0.062,0.354-0.094,0.562-0.094l0.938,0.125c1.166-0.541,2.188-1.302,3.062-2.281
		c0.875-0.979,1.771-2.156,2.688-3.531l0.625-0.875l0.812,0.5c0.207,0.125,0.5,0.24,0.875,0.345
		c0.375,0.104,0.771,0.219,1.188,0.344c0.75,0.167,1.459,0.354,2.125,0.562c0.666,0.209,1.209,0.521,1.625,0.938
		c0.25,0.667,0.396,1.167,0.438,1.5c0.041,0.334,0.105,0.667,0.189,1c0.125,0.709,0.238,1.417,0.344,2.125
		c0.104,0.709,0.176,1.5,0.219,2.375c0.207,0.709,0.385,1.406,0.531,2.094c0.146,0.688,0.281,1.386,0.406,2.094
		c0.207,1,0.416,1.97,0.625,2.907c0.207,0.938,0.479,1.823,0.811,2.654c0.334,0,0.541,0.021,0.625,0.062
		c0.209-0.083,0.428-0.146,0.656-0.188c0.23-0.041,0.49-0.083,0.781-0.125l0.688-0.062l0.25,0.625
		c0.041,0.209,0.25,0.417,0.625,0.625c0.541,0.042,0.939,0.156,1.189,0.345c0.25,0.188,0.479,0.386,0.688,0.594
		c0.166,0.167,0.332,0.292,0.5,0.375l0.938,0.375l-0.5,0.938c-0.416,0.75-1.01,1.47-1.781,2.156
		c-0.77,0.688-1.635,1.261-2.594,1.719c0.041,0.25,0.072,0.49,0.094,0.72c0.021,0.229,0.072,0.469,0.156,0.719
		c0.125,0.709,0.229,1.438,0.312,2.188c0.082,0.75,0.082,1.521,0,2.312L900.551,127.163z M882.489,116.351
		c1.25-0.083,2.385-0.177,3.406-0.28c1.021-0.104,2.156-0.281,3.406-0.531c-0.293-1.25-0.604-2.55-0.938-3.904
		c-0.334-1.354-0.689-2.698-1.062-4.032l-0.375,0.625c-0.834,0.875-1.637,1.854-2.406,2.939c-0.771,1.084-1.428,2.102-1.969,3.06
		c-0.25,0.375-0.5,0.75-0.75,1.125s-0.479,0.75-0.688,1.125c0.25-0.041,0.488-0.062,0.719-0.062
		C882.063,116.413,882.28,116.393,882.489,116.351z"/>
	<path fill="#202020" d="M917.489,121.038c-0.375,0.084-0.646,0.303-0.812,0.656s-0.322,0.719-0.469,1.094
		c-0.145,0.375-0.291,0.719-0.438,1.031c-0.146,0.312-0.365,0.469-0.656,0.469c-0.041,0.334-0.156,0.625-0.344,0.875
		s-0.365,0.511-0.531,0.781s-0.291,0.562-0.375,0.875c-0.084,0.312-0.041,0.678,0.125,1.094c-0.334,0.25-0.541,0.604-0.625,1.062
		c-0.084,0.459-0.178,0.896-0.281,1.312c-0.104,0.417-0.281,0.771-0.531,1.062c-0.25,0.292-0.709,0.417-1.375,0.375
		c-0.125,0.167-0.145,0.271-0.061,0.312c0.082,0.042,0.145,0.188,0.188,0.438c-0.459-0.083-0.803-0.053-1.031,0.095
		c-0.229,0.146-0.512,0.238-0.844,0.28c-0.793-0.25-1.447-0.688-1.969-1.312c-0.521-0.625-0.979-1.322-1.375-2.094
		s-0.75-1.553-1.062-2.345c-0.312-0.791-0.613-1.479-0.906-2.062c0.125-0.458,0.146-0.906,0.062-1.344
		c-0.084-0.438-0.229-0.803-0.438-1.095c2.041-4.333,4.27-8.958,6.688-13.874c2.416-4.916,4.707-9.771,6.875-14.562
		c0.957,0.375,1.906,0.803,2.844,1.281s1.791,1.03,2.562,1.655s1.426,1.345,1.969,2.156c0.541,0.812,0.896,1.719,1.062,2.719
		c-0.084,0.25-0.178,0.345-0.281,0.281c-0.104-0.062-0.199-0.031-0.281,0.094c0.166,0.209,0.26,0.354,0.281,0.438
		s0.021,0.167,0,0.25c-0.021,0.084-0.031,0.198-0.031,0.344c0,0.146,0.062,0.344,0.188,0.594c-0.166-0.041-0.281-0.021-0.344,0.062
		c-0.062,0.084-0.197,0.084-0.406,0c0.166,0.459,0.219,0.834,0.156,1.125c-0.062,0.292-0.156,0.553-0.281,0.781
		s-0.229,0.479-0.312,0.75c-0.084,0.271-0.061,0.614,0.062,1.03c-0.125,0-0.219,0.031-0.281,0.095
		c-0.061,0.062-0.115,0.125-0.156,0.188s-0.094,0.125-0.154,0.188c-0.062,0.062-0.156,0.072-0.281,0.03
		c0.125,0.917,0.166,1.834,0.125,2.75c-0.043,0.917-0.074,1.844-0.094,2.779c-0.021,0.938-0.012,1.917,0.029,2.938
		c0.041,1.021,0.189,2.072,0.439,3.155c1.5-0.875,2.697-2,3.594-3.375s1.625-2.916,2.188-4.623c0.562-1.708,0.988-3.542,1.281-5.5
		c0.291-1.958,0.604-3.958,0.938-6c0.375-0.375,0.666-0.833,0.875-1.375c0.209-0.541,0.396-1.113,0.562-1.719
		c0.166-0.604,0.332-1.208,0.5-1.812c0.166-0.604,0.375-1.156,0.625-1.656c0.625,0.084,1.156,0.281,1.594,0.594
		c0.438,0.313,0.844,0.646,1.219,1c0.375,0.354,0.771,0.688,1.188,1c0.416,0.312,0.939,0.511,1.562,0.594
		c0.5,0.709,0.959,1.396,1.375,2.062c0.416,0.667,0.688,1.375,0.812,2.125c-0.209,0.334-0.365,0.709-0.469,1.125
		c-0.104,0.417-0.219,0.834-0.344,1.25c-0.125,0.417-0.293,0.803-0.5,1.156c-0.209,0.354-0.5,0.655-0.875,0.905
		c-0.125,1.084-0.281,2.073-0.469,2.97c-0.189,0.896-0.375,1.78-0.562,2.656c-0.188,0.875-0.344,1.78-0.469,2.717
		c-0.125,0.938-0.168,1.969-0.125,3.094c-0.334,0.959-0.689,1.979-1.062,3.062c-0.375,1.084-0.668,2.062-0.875,2.938
		c-0.668,0.542-1.188,1.188-1.562,1.938c-0.373,0.75-0.771,1.5-1.188,2.25c-0.168,0.167-0.271,0.209-0.312,0.125
		c-0.041-0.083-0.188-0.146-0.438-0.188c0.041,0.167,0.041,0.292,0,0.375c-0.043,0.084-0.094,0.156-0.156,0.219
		c-0.062,0.063-0.104,0.156-0.125,0.281s0.01,0.292,0.094,0.5c-0.584,0.25-1.104,0.604-1.562,1.062
		c-0.459,0.459-0.947,0.875-1.469,1.25c-0.52,0.375-1.145,0.625-1.875,0.75c-0.729,0.125-1.678-0.021-2.844-0.438
		c-1.709-1.25-3.219-2.688-4.531-4.312C919.401,125.225,918.323,123.288,917.489,121.038z"/>
	<path fill="#202020" d="M971.614,115.538c-0.041,0.209-0.084,0.386-0.125,0.531s-0.084,0.28-0.125,0.405s-0.062,0.281-0.062,0.47
		c0,0.188,0,0.428,0,0.719c-1.25,2.209-2.822,4.062-4.719,5.562c-1.895,1.5-3.979,2.823-6.25,3.97
		c-2.27,1.146-4.635,2.188-7.094,3.125s-4.854,1.947-7.188,3.03c-1-0.25-1.762-0.667-2.281-1.25c-0.521-0.583-0.916-1.26-1.188-2.03
		c-0.271-0.771-0.459-1.625-0.562-2.562s-0.197-1.906-0.281-2.906c0.125-0.458,0.303-0.844,0.531-1.155
		c0.229-0.312,0.344-0.761,0.344-1.345c0.334-1.083,0.666-2.146,1-3.188c0.334-1.041,0.541-2.104,0.625-3.188
		c0.125-0.333,0.354-0.562,0.688-0.688c0.209-2,0.221-4.029,0.031-6.091c-0.188-2.062-0.531-3.989-1.031-5.781
		c0.041-0.416,0.096-0.719,0.156-0.906c0.062-0.187,0.053-0.322-0.031-0.406c-0.041-0.333,0.072-0.5,0.346-0.5
		c0.27,0,0.551,0,0.844,0c0-0.625-0.115-1.25-0.344-1.875c-0.23-0.625-0.449-1.333-0.656-2.125c0.291-0.625,0.479-1.238,0.561-1.844
		c0.084-0.604,0.271-1.135,0.562-1.594c2.25,0.709,4.406,1.562,6.469,2.562c2.064,1,4.094,1.729,6.094,2.188
		c1.5,1.084,3.041,2.156,4.625,3.219s3.021,2.229,4.312,3.5c1.291,1.271,2.375,2.719,3.25,4.344
		C970.989,111.353,971.489,113.289,971.614,115.538z M956.801,118.976c0.875-0.333,1.74-0.688,2.596-1.062
		c0.854-0.375,1.645-0.802,2.375-1.281c0.729-0.479,1.385-1.031,1.969-1.656c0.582-0.625,1.061-1.375,1.438-2.248
		c-0.25-0.5-0.584-0.946-1-1.344c-0.418-0.396-0.834-0.771-1.25-1.125c-0.418-0.354-0.822-0.719-1.219-1.094
		s-0.719-0.833-0.969-1.375c-0.543-0.083-1.021-0.239-1.439-0.469c-0.416-0.229-0.822-0.458-1.219-0.688
		c-0.395-0.229-0.811-0.447-1.25-0.656c-0.438-0.208-0.947-0.333-1.531-0.375c-0.916-0.458-1.738-0.791-2.469-1
		c-0.729-0.208-1.281-0.479-1.656-0.812c-0.291,0-0.52,0.062-0.688,0.188c0.416,1.584,0.729,3.073,0.938,4.47
		c0.209,1.396,0.322,2.792,0.346,4.188c0.02,1.395-0.055,2.821-0.221,4.279c-0.166,1.459-0.395,3.042-0.688,4.75
		c0.416-0.041,0.803-0.135,1.156-0.281c0.354-0.146,0.709-0.302,1.062-0.469c0.354-0.166,0.729-0.322,1.125-0.469
		s0.863-0.239,1.406-0.281c0.125-0.25,0.301-0.458,0.531-0.625C956.374,119.372,956.592,119.185,956.801,118.976z"/>
	<path fill="#202020" d="M985.864,128.038c0.209,1.25,0.135,2.229-0.219,2.938s-0.854,1.24-1.5,1.595
		c-0.646,0.354-1.387,0.552-2.219,0.594c-0.834,0.041-1.625,0-2.375-0.125c-0.418-0.584-0.793-1.312-1.125-2.188
		c-0.334-0.875-0.646-1.78-0.938-2.719c-0.293-0.938-0.553-1.864-0.781-2.781c-0.229-0.916-0.428-1.729-0.594-2.438
		c0.207-0.5,0.344-1.072,0.406-1.719c0.061-0.646,0.104-1.303,0.125-1.97c0.02-0.666,0.041-1.344,0.061-2.03
		c0.021-0.688,0.072-1.345,0.156-1.97c0.291-1.75,0.719-3.414,1.281-4.999c0.562-1.583,1.01-3.229,1.344-4.938
		c0.084-0.375,0.053-0.729-0.094-1.062s-0.178-0.646-0.094-0.938c0.041-0.166,0.166-0.281,0.375-0.345
		c0.207-0.062,0.332-0.196,0.375-0.405c0.125-0.458,0.156-0.833,0.094-1.125c-0.062-0.291,0.01-0.646,0.219-1.062
		c0.209-0.333,0.469-0.821,0.781-1.469c0.312-0.646,0.428-1.322,0.344-2.031c0.375-0.25,0.729-0.541,1.062-0.875
		c0.332-0.333,0.678-0.635,1.031-0.905c0.354-0.271,0.75-0.511,1.188-0.72c0.438-0.208,0.969-0.312,1.594-0.312
		c0.334,0.417,0.553,0.875,0.656,1.375s0.209,1,0.312,1.5s0.26,0.969,0.469,1.406c0.207,0.438,0.562,0.78,1.062,1.03
		c0,0.334,0,0.75,0,1.25s0.02,0.99,0.061,1.47c0.041,0.479,0.137,0.917,0.281,1.312c0.146,0.396,0.385,0.656,0.719,0.781
		c-0.75,2-1.447,3.979-2.094,5.938c-0.645,1.959-1.178,3.926-1.594,5.905s-0.678,3.969-0.781,5.969
		C985.354,123.976,985.489,125.997,985.864,128.038z"/>
	<path fill="#202020" d="M1005.926,121.038c-0.375,0.084-0.645,0.303-0.811,0.656c-0.168,0.354-0.324,0.719-0.469,1.094
		c-0.146,0.375-0.293,0.719-0.439,1.031c-0.145,0.312-0.365,0.469-0.656,0.469c-0.041,0.334-0.154,0.625-0.344,0.875
		c-0.188,0.25-0.365,0.511-0.531,0.781s-0.291,0.562-0.375,0.875c-0.084,0.312-0.041,0.678,0.125,1.094
		c-0.334,0.25-0.541,0.604-0.625,1.062c-0.084,0.459-0.178,0.896-0.279,1.312c-0.105,0.417-0.281,0.771-0.531,1.062
		c-0.25,0.292-0.709,0.417-1.375,0.375c-0.125,0.167-0.146,0.271-0.062,0.312c0.082,0.042,0.146,0.188,0.188,0.438
		c-0.459-0.083-0.803-0.053-1.031,0.095c-0.229,0.146-0.51,0.238-0.844,0.28c-0.791-0.25-1.447-0.688-1.969-1.312
		c-0.521-0.625-0.979-1.322-1.375-2.094s-0.75-1.553-1.062-2.345c-0.311-0.791-0.613-1.479-0.906-2.062
		c0.125-0.458,0.146-0.906,0.062-1.344c-0.082-0.438-0.229-0.803-0.438-1.095c2.041-4.333,4.271-8.958,6.688-13.874
		c2.416-4.916,4.709-9.771,6.875-14.562c0.959,0.375,1.906,0.803,2.844,1.281c0.939,0.479,1.791,1.03,2.562,1.655
		s1.428,1.345,1.969,2.156s0.896,1.719,1.062,2.719c-0.084,0.25-0.178,0.345-0.281,0.281c-0.104-0.062-0.197-0.031-0.281,0.094
		c0.166,0.209,0.26,0.354,0.281,0.438s0.021,0.167,0,0.25c-0.021,0.084-0.031,0.198-0.031,0.344c0,0.146,0.062,0.344,0.188,0.594
		c-0.166-0.041-0.279-0.021-0.344,0.062c-0.061,0.084-0.197,0.084-0.406,0c0.166,0.459,0.221,0.834,0.156,1.125
		c-0.061,0.292-0.156,0.553-0.281,0.781s-0.229,0.479-0.311,0.75c-0.084,0.271-0.062,0.614,0.061,1.03
		c-0.125,0-0.219,0.031-0.279,0.095c-0.062,0.062-0.115,0.125-0.156,0.188c-0.043,0.062-0.094,0.125-0.156,0.188
		c-0.062,0.062-0.156,0.072-0.281,0.03c0.125,0.917,0.166,1.834,0.125,2.75c-0.043,0.917-0.072,1.844-0.094,2.779
		c-0.021,0.938-0.012,1.917,0.031,2.938c0.041,1.021,0.188,2.072,0.438,3.155c1.5-0.875,2.697-2,3.594-3.375
		s1.625-2.916,2.188-4.623c0.562-1.708,0.99-3.542,1.281-5.5c0.291-1.958,0.604-3.958,0.938-6c0.375-0.375,0.666-0.833,0.875-1.375
		c0.209-0.541,0.396-1.113,0.562-1.719c0.166-0.604,0.334-1.208,0.5-1.812c0.166-0.604,0.375-1.156,0.625-1.656
		c0.625,0.084,1.156,0.281,1.594,0.594c0.439,0.313,0.844,0.646,1.219,1c0.375,0.354,0.771,0.688,1.189,1
		c0.416,0.312,0.938,0.511,1.561,0.594c0.5,0.709,0.959,1.396,1.375,2.062c0.416,0.667,0.689,1.375,0.812,2.125
		c-0.209,0.334-0.365,0.709-0.469,1.125c-0.104,0.417-0.219,0.834-0.344,1.25c-0.125,0.417-0.293,0.803-0.5,1.156
		c-0.209,0.354-0.5,0.655-0.875,0.905c-0.125,1.084-0.281,2.073-0.469,2.97c-0.188,0.896-0.375,1.78-0.562,2.656
		c-0.188,0.875-0.344,1.78-0.469,2.717c-0.125,0.938-0.168,1.969-0.125,3.094c-0.334,0.959-0.688,1.979-1.062,3.062
		c-0.375,1.084-0.666,2.062-0.875,2.938c-0.666,0.542-1.188,1.188-1.562,1.938c-0.373,0.75-0.77,1.5-1.188,2.25
		c-0.166,0.167-0.271,0.209-0.312,0.125c-0.041-0.083-0.188-0.146-0.438-0.188c0.041,0.167,0.041,0.292,0,0.375
		c-0.041,0.084-0.094,0.156-0.156,0.219c-0.061,0.063-0.104,0.156-0.125,0.281c-0.02,0.125,0.01,0.292,0.094,0.5
		c-0.584,0.25-1.104,0.604-1.561,1.062c-0.459,0.459-0.949,0.875-1.469,1.25c-0.521,0.375-1.146,0.625-1.875,0.75
		c-0.73,0.125-1.68-0.021-2.846-0.438c-1.709-1.25-3.219-2.688-4.529-4.312C1007.838,125.225,1006.76,123.288,1005.926,121.038z"/>
	<path fill="#202020" d="M1073.551,121.163c-1,1.792-2.311,3.178-3.938,4.156c-1.625,0.979-3.416,1.792-5.375,2.438
		c-1.959,0.646-4.01,1.219-6.156,1.719c-2.145,0.5-4.219,1.146-6.219,1.938c-0.584,0-1.094,0.021-1.531,0.062
		c-0.438,0.042-0.854,0.095-1.25,0.156c-0.395,0.062-0.781,0.125-1.156,0.188c-0.375,0.062-0.791,0.114-1.25,0.155
		c-0.166-0.041-0.27-0.01-0.311,0.095c-0.043,0.104-0.105,0.197-0.189,0.28c-0.709,0.125-1.344,0.188-1.904,0.188
		c-0.562,0-1.031,0-1.406,0c-0.5,0-1.012,0.072-1.531,0.219c-0.521,0.146-0.99,0.197-1.406,0.156
		c-3.125-0.167-5.572-1.281-7.344-3.344s-2.762-4.928-2.969-8.595c0.041-0.208,0.01-0.333-0.094-0.375
		c-0.105-0.041-0.199-0.104-0.281-0.188c0-0.416,0.051-0.771,0.156-1.062c0.104-0.291,0.113-0.666,0.029-1.125
		c1.084-2.291,2.312-4.427,3.689-6.403c1.375-1.98,3.02-3.72,4.938-5.22c0.291-0.25,0.541-0.5,0.75-0.75
		c0.207-0.25,0.406-0.5,0.594-0.75s0.406-0.469,0.656-0.655c0.25-0.188,0.562-0.322,0.938-0.406c0.875-1,1.916-1.916,3.125-2.75
		c1.209-0.833,2.479-1.635,3.812-2.406c1.332-0.771,2.656-1.541,3.969-2.312c1.312-0.771,2.51-1.636,3.594-2.595
		c0.459,0.209,0.791,0.271,1,0.188s0.438-0.083,0.688,0c0.291,0.625,0.697,1.062,1.221,1.312c0.52,0.25,1.041,0.512,1.561,0.781
		c0.521,0.271,1.01,0.594,1.469,0.969s0.812,0.875,1.062,1.5c-0.25,0-0.365,0.095-0.344,0.281c0.021,0.188,0.072,0.375,0.156,0.562
		c0.082,0.188,0.113,0.375,0.094,0.562c-0.021,0.188-0.178,0.281-0.469,0.281c0.041,0.209,0.178,0.323,0.406,0.344
		c0.229,0.021,0.344,0.136,0.344,0.344c0,0.209-0.053,0.375-0.156,0.5s-0.115,0.334-0.031,0.625
		c-0.834,0.542-1.76,1.062-2.781,1.562c-1.02,0.5-2.084,1.031-3.188,1.594s-2.25,1.167-3.438,1.812s-2.344,1.386-3.469,2.219
		c-1.125,0.834-2.271,1.761-3.439,2.782c-1.166,1.019-2.291,2.091-3.375,3.216s-2.104,2.281-3.061,3.469
		c-0.959,1.188-1.771,2.365-2.439,3.531c0.084,0.209,0.178,0.365,0.281,0.469c0.105,0.104,0.197,0.261,0.281,0.469
		c1.334,0.084,2.572,0.073,3.719-0.03c1.146-0.104,2.303-0.031,3.469,0.219c0.125-0.083,0.209-0.208,0.25-0.375
		c0.041-0.166,0.146-0.291,0.312-0.375c2.375-0.25,4.584-0.635,6.625-1.156c2.041-0.521,4.125-1.072,6.25-1.656
		c-0.334-0.125-0.635-0.238-0.906-0.344c-0.27-0.104-0.531-0.197-0.781-0.281c-0.209-0.208-0.197-0.385,0.031-0.53
		c0.23-0.146,0.428-0.303,0.594-0.47c-0.584-0.333-1.053-0.75-1.404-1.25c-0.355-0.5-0.574-1.166-0.656-2
		c0.25-0.208,0.375-0.458,0.375-0.75c0-0.291-0.125-0.521-0.375-0.687c-0.168-0.041-0.271-0.041-0.312,0
		c-0.043,0.042-0.072,0.104-0.094,0.187c-0.021,0.084-0.053,0.156-0.094,0.22c-0.043,0.062-0.146,0.053-0.312-0.031
		c0.041-0.375,0.135-0.688,0.281-0.938c0.146-0.249,0.26-0.539,0.344-0.873l4.312-2.875c0.457,0.334,1.02,0.698,1.688,1.095
		c0.666,0.396,1.363,0.792,2.094,1.188c0.729,0.396,1.479,0.792,2.25,1.188c0.771,0.395,1.488,0.779,2.156,1.154
		c0.582,0.25,1.104,0.584,1.562,1c0.457,0.417,0.895,0.845,1.311,1.281c0.416,0.438,0.846,0.865,1.281,1.281
		c0.439,0.417,0.947,0.771,1.531,1.062c-0.084,0.542-0.062,0.979,0.062,1.312S1073.592,120.663,1073.551,121.163z"/>
</g>
</svg>
