<?xml version="1.0" encoding="utf-8"?>
<!-- Generator: Adobe Illustrator 15.0.0, SVG Export Plug-In . SVG Version: 6.00 Build 0)  -->
<!DOCTYPE svg PUBLIC "-//W3C//DTD SVG 1.1//EN" "http://www.w3.org/Graphics/SVG/1.1/DTD/svg11.dtd">
<svg version="1.1" id="Layer_1" xmlns="http://www.w3.org/2000/svg" xmlns:xlink="http://www.w3.org/1999/xlink" x="0px" y="0px"
	 width="458.565px" height="96.413px" viewBox="-0.105 0 458.565 96.413" enable-background="new -0.105 0 458.565 96.413"
	 xml:space="preserve">
<rect x="-0.105" fill="#464646" width="458.565" height="96.413"/>
<polygon fill="#FFFFFF" points="83.499,0 0.392,0 -0.105,0 -0.105,0.498 -0.105,4.308 -0.105,4.805 0.392,4.805 79.191,4.805 
	79.191,83.567 79.191,84.064 79.689,84.064 83.499,84.064 83.996,84.064 83.996,83.567 83.996,0.498 83.996,0 "/>
<g>
	<polygon fill="#FFFFFF" points="5.584,78.708 5.584,51.274 5.584,51.024 5.334,51.024 0.178,51.024 -0.072,51.024 -0.072,51.274 
		-0.072,83.788 -0.072,84.038 0.178,84.038 22.053,84.038 22.303,84.038 22.303,83.788 22.303,78.958 22.303,78.708 22.053,78.708 	
		"/>
	<polygon fill="#FFFFFF" points="53.268,51.024 48.113,51.024 47.863,51.024 47.863,51.274 47.863,64.497 32.478,64.497 
		32.478,51.274 32.478,51.024 32.228,51.024 27.073,51.024 26.823,51.024 26.823,51.274 26.823,83.788 26.823,84.038 27.073,84.038 
		32.228,84.038 32.478,84.038 32.478,83.788 32.478,69.779 47.863,69.779 47.863,83.788 47.863,84.038 48.113,84.038 53.268,84.038 
		53.518,84.038 53.518,83.788 53.518,51.274 53.518,51.024 	"/>
</g>
<g>
	<path fill="#FFFFFF" d="M107.854,84.099V36.716h6.562v41.739h22.051v5.644H107.854L107.854,84.099z"/>
	<path fill="#FFFFFF" d="M147.137,68.808c-0.459,5.774,1.903,11.747,8.27,11.747c4.856,0,7.285-1.903,8.007-6.693h6.562
		c-0.984,7.481-6.76,11.223-14.635,11.223c-10.566,0-14.767-7.481-14.767-17.195c0-9.646,4.856-17.719,15.291-17.719
		c9.845,0.197,14.504,6.432,14.504,15.554v3.084H147.137z M163.807,64.477c0.131-5.514-2.363-9.779-8.4-9.779
		c-5.185,0-8.27,4.397-8.27,9.779H163.807z"/>
	<path fill="#FFFFFF" d="M184.301,84.099h-6.432c0.131-1.97,0.328-3.938,0.328-5.25V36.716h6.235v18.901h0.131
		c1.906-3.938,6.042-5.447,10.242-5.447c10.238,0,14.833,8.531,14.833,17.457c0,8.466-3.938,17.457-13.717,17.457
		c-4.791,0-9.122-1.642-11.358-6.235h-0.131l0.131,0.329L184.301,84.099z M193.756,54.698c-7.088,0-9.323,6.957-9.323,12.93
		c0,6.168,1.774,12.928,9.323,12.928c7.023,0,9.319-6.76,9.319-12.928C203.075,61.458,201.239,54.698,193.756,54.698z"/>
	<path fill="#FFFFFF" d="M236.715,63.754c0-5.711-0.328-9.058-6.957-9.058c-3.151,0-6.11,1.837-6.174,5.25h-6.563
		c0.328-7.219,5.972-9.778,12.476-9.778c6.761,0,13.455,2.035,13.455,11.224v15.75c0,1.442,0.064,4.2,0.264,6.957h-4.201
		c-0.592,0-1.707,0.328-1.773-0.459c-0.13-1.511-0.262-2.954-0.327-4.462h-0.132c-2.033,4.134-5.709,5.906-10.242,5.906
		c-5.71,0-11.487-2.955-11.487-9.385c0-9.255,8.203-11.945,16.021-11.945H236.715L236.715,63.754z M230.479,68.084
		c-3.81,0.197-8.866,1.576-8.866,6.367c0,4.068,2.821,6.103,6.503,6.103c7.353,0,8.73-6.366,8.599-12.47H230.479z"/>
	<path fill="#FFFFFF" d="M258.463,56.011h0.131c2.101-4.136,6.693-5.841,9.977-5.841c2.297,0,12.469,0.591,12.469,11.156V84.1
		h-6.232V63.362c0-5.447-2.297-8.4-7.549-8.4c0,0-3.41-0.196-6.035,2.429c-0.92,0.919-2.627,2.362-2.627,8.794v17.917h-6.232V51.156
		h6.104v4.855H258.463z"/>
	<path fill="#FFFFFF" d="M310.7,84.099V36.716h6.562v20.345h22.51V36.716h6.562v47.383h-6.562V62.704h-22.51v21.396H310.7
		L310.7,84.099z"/>
	<path fill="#FFFFFF" d="M367.418,96.7h-6.363l4.985-12.731l-13.717-32.814h6.957l10.303,25.989l10.501-25.989h6.694L367.418,96.7z"
		/>
	<path fill="#FFFFFF" d="M414.32,36.716h6.235v41.542c0,1.969,0.195,3.938,0.325,5.841h-6.363l-0.197-4.922v-0.329h-0.13
		c-2.232,4.594-6.564,6.234-11.354,6.234c-9.777,0-13.649-8.99-13.649-17.457c0-8.924,4.527-17.457,14.768-17.457
		c4.2,0,8.333,1.51,10.238,5.447h0.13L414.32,36.716L414.32,36.716z M405.068,80.752c7.546,0,9.316-7.022,9.316-13.191
		c0-5.973-2.229-13.061-9.316-13.061c-7.483,0-9.319,6.892-9.319,13.061C395.749,73.729,398.044,80.752,405.068,80.752z"/>
	<path fill="#FFFFFF" d="M434.625,68.808c-0.46,5.774,1.902,11.747,8.271,11.747c4.854,0,7.284-1.903,8.006-6.693h6.562
		c-0.984,7.481-6.76,11.223-14.636,11.223c-10.563,0-14.766-7.481-14.766-17.195c0-9.646,4.854-17.719,15.29-17.719
		c9.844,0.197,14.504,6.432,14.504,15.554v3.084H434.625z M451.294,64.477c0.132-5.514-2.36-9.779-8.398-9.779
		c-5.187,0-8.271,4.397-8.271,9.779H451.294z"/>
</g>
</svg>
