<?xml version="1.0" encoding="utf-8"?>
<!-- Generator: Adobe Illustrator 15.0.0, SVG Export Plug-In . SVG Version: 6.00 Build 0)  -->
<!DOCTYPE svg PUBLIC "-//W3C//DTD SVG 1.1 Basic//EN" "http://www.w3.org/Graphics/SVG/1.1/DTD/svg11-basic.dtd">
<svg version="1.1" baseProfile="basic" id="frame_base_shear2"
	 xmlns="http://www.w3.org/2000/svg" xmlns:xlink="http://www.w3.org/1999/xlink" x="0px" y="0px" width="1073.567px"
	 height="220.106px" viewBox="0 0 1073.567 220.106" xml:space="preserve">
<path display="none" d="M502.326,7.274l-9.499-8.826L10.142,11.088v199.367l11.039,11.204l481.146-12.6V7.274z M19.74,20.762
	l9.176,9.314l0.266-0.263v171.375l-9.442,0.246V20.762z M501.345,208.104L21.599,220.666l-9.298-9.437l479.473-12.553V17.259
	l-0.072,0.002v-0.026l-9.571,0.25v0.027L29.608,29.362l-9.193-9.333l480.93-12.592V208.104z M30.163,201.164V30.329L482.13,18.494
	v170.835L30.163,201.164z"/>
<linearGradient id="SVGID_1_" gradientUnits="userSpaceOnUse" x1="309.7324" y1="276.1294" x2="188.8383" y2="-56.0244">
	<stop  offset="0" style="stop-color:#66F1FA"/>
	<stop  offset="0.0497" style="stop-color:#60DEE6"/>
	<stop  offset="0.233" style="stop-color:#499BA0"/>
	<stop  offset="0.3982" style="stop-color:#376669"/>
	<stop  offset="0.5395" style="stop-color:#2B4041"/>
	<stop  offset="0.6514" style="stop-color:#232929"/>
	<stop  offset="0.72" style="stop-color:#202020"/>
</linearGradient>
<path fill="url(#SVGID_1_)" d="M216.6,153.118v-6.979l5.184-7.681h-2.13l-4.036,6.03l-4.064-6.03h-2.131l5.184,7.681v6.979H216.6z
	 M191.689,67.752v63.062h10.541v-26.305h26.215v26.305h10.543V67.752h-10.543v26.125H202.23V67.752H191.689z M13.503,25.646v167.462
	l9.666-0.252V35.059l465.866-12.199v175.512L3.938,211.073l9.277,9.033l485.354-12.709V12.944L13.503,25.646z M381.696,153.118
	v-6.979l5.184-7.681h-2.13l-4.036,6.03l-4.063-6.03h-2.13l5.184,7.681v6.979H381.696z M103.014,125.589l2.07,5.225h11.352
	L91.211,67.752l-25.135,63.062H77.43l2.07-5.225H103.014z M91.211,96.13l7.568,18.92H83.734L91.211,96.13z M191.685,153.118h5.262
	c1.643,0,2.911-0.357,3.801-1.071c0.889-0.713,1.335-1.725,1.335-3.033c0-0.995-0.27-1.825-0.81-2.489
	c-0.539-0.664-1.297-1.102-2.272-1.311c0.812-0.13,1.427-0.462,1.845-0.991c0.42-0.53,0.629-1.243,0.629-2.14
	c0-1.16-0.411-2.054-1.229-2.683c-0.818-0.628-1.983-0.942-3.494-0.942h-5.067V153.118z M193.667,140.089h2.938
	c0.969,0,1.69,0.183,2.165,0.549c0.474,0.367,0.711,0.919,0.711,1.658c0,0.747-0.237,1.303-0.711,1.665
	c-0.475,0.363-1.196,0.545-2.165,0.545h-2.938V140.089z M193.667,146.117h3.181c1.068,0,1.859,0.217,2.374,0.653
	c0.512,0.435,0.77,1.11,0.77,2.027c0,0.909-0.257,1.585-0.77,2.028c-0.515,0.44-1.306,0.661-2.374,0.661h-3.181V146.117z
	 M166.602,76.048c3.344,0,6.809,1.704,9.484,4.38l6.326-6.325c-4.318-4.378-9.852-7.114-15.811-7.114
	c-11.797,0-21.285,9.546-21.285,21.282c0,11.737,9.488,21.285,21.285,21.285c5.959,0,11.492-2.737,15.811-7.056l-6.326-6.385
	c-2.676,2.676-6.141,4.378-9.484,4.378c-6.691,0-12.223-5.473-12.223-12.223C154.379,81.523,159.91,76.048,166.602,76.048z
	 M485.066,26.995l-9.666,0.253v157.797L9.534,197.245V21.731l484.95-12.699L485.205,0L0,12.706v194.453l485.066-12.701V26.995z
	 M123.729,67.752v63.062h39.998v-10.541h-29.459V67.752H123.729z M426.601,140.127v-1.67h-9.268v14.66h9.443v-1.669h-7.462v-5.311
	h6.981v-1.672h-6.981v-4.339H426.601z M322.908,138.458h-2.672v14.66h1.926v-12.264l6.498,12.264h2.67v-14.66h-1.924v12.264
	L322.908,138.458z M243.18,138.458v14.66h9.125v-1.669h-7.143v-12.991H243.18z M334.662,89.858L315.57,67.663H304.85v63.151h10.541
	V85.266l19.271,22.547l19.27-22.547v45.548h10.541V67.663h-10.719L334.662,89.858z M298.092,153.118h2.092l1.336-3.76h6.606
	l1.336,3.76h2.062l-5.587-14.66h-2.248L298.092,153.118z M307.507,147.708h-5.39l2.691-7.296L307.507,147.708z M413.896,67.752
	l-16.035,22.522l-16.125-22.522h-12.883l23.691,33.242v29.819h10.541v-29.819l23.695-33.242H413.896z M365.911,153.118v-14.66
	h-1.982v6.009h-7.208v-6.009h-1.98v14.66h1.98v-6.979h7.208v6.979H365.911z M293.766,78.292v-10.54h-42.066v63.062h42.066v-10.541
	h-31.531v-15.764h26.217V94.058h-26.217V78.292H293.766z M395.489,138.458v14.66h4.073c2.828,0,4.909-0.592,6.244-1.778
	c1.336-1.185,2.004-3.039,2.004-5.566c0-2.514-0.665-4.361-1.994-5.542c-1.329-1.183-3.412-1.773-6.254-1.773H395.489z
	 M404.31,141.458c0.939,0.913,1.408,2.352,1.408,4.315c0,1.977-0.469,3.424-1.408,4.34c-0.939,0.915-2.419,1.374-4.442,1.374h-2.396
	v-11.397h2.396C401.891,140.089,403.37,140.545,404.31,141.458z M288.956,144.222c0.419-0.53,0.629-1.243,0.629-2.14
	c0-1.16-0.411-2.054-1.228-2.683c-0.819-0.628-1.984-0.942-3.494-0.942h-5.067v14.66h5.263c1.642,0,2.909-0.357,3.8-1.071
	c0.89-0.713,1.335-1.725,1.335-3.033c0-0.995-0.271-1.825-0.811-2.489c-0.539-0.664-1.297-1.102-2.271-1.311
	C287.922,145.083,288.537,144.751,288.956,144.222z M287.332,146.77c0.513,0.435,0.77,1.11,0.77,2.027
	c0,0.909-0.257,1.585-0.77,2.028c-0.516,0.44-1.307,0.661-2.372,0.661h-3.181v-5.37h3.181
	C286.025,146.117,286.816,146.333,287.332,146.77z M286.88,143.961c-0.475,0.363-1.195,0.545-2.165,0.545h-2.936v-4.417h2.936
	c0.97,0,1.69,0.183,2.165,0.549c0.475,0.367,0.71,0.919,0.71,1.658C287.59,143.043,287.354,143.599,286.88,143.961z
	 M270.255,140.127v-1.67h-9.269v14.66h9.443v-1.669h-7.462v-5.311h6.981v-1.672h-6.981v-4.339H270.255z"/>
<line fill="none" stroke="#9A9A9A" stroke-width="3" stroke-miterlimit="10" x1="559.993" y1="211.718" x2="559.993" y2="23.539"/>
<g>
	<path fill="#202020" d="M624.614,98.855c-0.084-0.541-0.188-0.875-0.312-1c0.291-0.75,0.51-1.489,0.656-2.219
		c0.146-0.729,0.26-1.427,0.344-2.094c0.083-0.583,0.177-1.125,0.281-1.625c0.104-0.5,0.239-0.979,0.406-1.438
		c0.708-0.166,1.239-0.469,1.594-0.906c0.354-0.438,0.635-0.822,0.844-1.156c0.75-0.041,1.239,0.062,1.469,0.312
		c0.229,0.25,0.489,0.667,0.781,1.25c0.208,0.459,0.5,0.948,0.875,1.469c0.375,0.521,0.938,0.928,1.688,1.219
		c0.125,0.459,0.271,0.896,0.438,1.312c0.166,0.417,0.354,0.854,0.562,1.312c0.375,0.875,0.729,1.781,1.062,2.719
		c0.333,0.938,0.521,1.823,0.562,2.656c-0.5,0.959-0.886,2.062-1.156,3.312c-0.271,1.25-0.438,2.511-0.5,3.781
		c-0.062,1.271-0.031,2.49,0.094,3.656c0.125,1.167,0.333,2.146,0.625,2.938l0.375,1l1.375-0.125c1.5-0.375,2.854-0.802,4.062-1.281
		c1.208-0.479,2.333-1.052,3.375-1.719c1.041-0.666,2.041-1.426,3-2.281c0.958-0.854,1.958-1.864,3-3.031
		c1-1.166,1.896-2.489,2.688-3.969c0.791-1.479,1.447-3.01,1.969-4.594c0.521-1.583,0.927-3.166,1.219-4.75
		c0.291-1.583,0.479-3.062,0.562-4.438c0.791-0.375,1.229-0.979,1.312-1.812l-0.188-0.812c-0.125-0.208-0.178-0.406-0.156-0.594
		c0.021-0.188,0.072-0.364,0.156-0.531c0.333-0.958,1.041-1.666,2.125-2.125c0.75,0.5,1.447,1.042,2.094,1.625
		c0.646,0.584,1.239,1.167,1.781,1.75c0.083,1.125,0.25,2.094,0.5,2.906s0.521,1.594,0.812,2.344
		c0.291,0.709,0.552,1.396,0.781,2.062c0.229,0.667,0.385,1.479,0.469,2.438c-0.417,1.25-0.719,2.428-0.906,3.531
		c-0.188,1.104-0.365,2.261-0.531,3.469l-0.125,0.688c-0.75,1.292-1.49,2.615-2.219,3.969c-0.729,1.354-1.323,2.531-1.781,3.531
		c-0.25,0.25-0.469,0.542-0.656,0.875c-0.188,0.334-0.365,0.667-0.531,1c-0.084,0.125-0.198,0.334-0.344,0.625
		c-0.146,0.292-0.281,0.5-0.406,0.625l-1.5-0.562l-0.375,1.938l-1,0.25l-0.75,0.875c-0.959,1.667-1.969,3.062-3.031,4.188
		s-2.25,2.125-3.562,3s-2.792,1.698-4.438,2.469c-1.646,0.771-3.531,1.594-5.656,2.469c-0.834-0.125-1.553-0.197-2.156-0.219
		c-0.604-0.021-1.198-0.052-1.781-0.094c-0.584,0-1.146-0.021-1.688-0.062c-0.542-0.041-1.167-0.104-1.875-0.188
		c-0.167-0.375-0.396-0.646-0.688-0.812c-0.292-0.166-0.562-0.25-0.812-0.25c-0.834-0.416-1.459-1-1.875-1.75
		c-0.417-0.75-0.854-1.583-1.312-2.5c-0.209-0.5-0.428-1-0.656-1.5c-0.229-0.5-0.511-0.979-0.844-1.438l1.25-0.375l-1.625-1.875
		c-0.125-0.125-0.261-0.25-0.406-0.375c-0.146-0.125-0.281-0.271-0.406-0.438v-1.188c-0.167-3.416-0.24-6.572-0.219-9.468
		c0.021-2.896,0.406-5.447,1.156-7.656L624.614,98.855z"/>
	<path fill="#202020" d="M667.864,131.917c-1.625-1.209-2.823-2.697-3.594-4.469c-0.771-1.771-0.864-3.531-0.281-5.281
		c0.084-1.291,0.406-2.531,0.969-3.719s1.25-2.322,2.062-3.406c0.812-1.083,1.697-2.104,2.656-3.062
		c0.958-0.958,1.854-1.853,2.688-2.687c0.166-0.5,0.458-0.938,0.875-1.312c0.416-0.375,0.864-0.739,1.344-1.094
		c0.479-0.354,0.958-0.739,1.438-1.156c0.479-0.416,0.864-0.896,1.156-1.438c-0.167-0.583-0.438-1.166-0.812-1.75
		c-0.375-0.583-0.792-1.166-1.25-1.75c-0.459-0.583-0.938-1.166-1.438-1.75c-0.5-0.583-0.959-1.188-1.375-1.812
		c-0.042-0.208-0.198-0.271-0.469-0.188c-0.271,0.084-0.469,0.062-0.594-0.062c0.083-0.666-0.053-1.385-0.406-2.156
		c-0.354-0.771-0.823-1.427-1.406-1.969c0.208-0.5,0.406-1.146,0.594-1.938c0.188-0.791,0.135-1.646-0.156-2.562
		c-0.042-0.416,0.01-0.812,0.156-1.188c0.146-0.375,0.302-0.729,0.469-1.062c0.166-0.333,0.291-0.656,0.375-0.969
		c0.083-0.312,0.062-0.635-0.062-0.969c0.625-0.083,1.197-0.052,1.719,0.094c0.521,0.146,1,0.312,1.438,0.5s0.854,0.344,1.25,0.469
		c0.396,0.125,0.781,0.104,1.156-0.062c-0.084,0.25-0.094,0.428-0.031,0.531c0.062,0.104,0.146,0.188,0.25,0.25
		c0.104,0.062,0.208,0.115,0.312,0.156c0.104,0.042,0.156,0.146,0.156,0.312c0.791,0.25,1.656,0.792,2.594,1.625
		c0.938,0.834,1.844,1.75,2.719,2.75s1.666,1.99,2.375,2.969c0.708,0.979,1.229,1.74,1.562,2.281c1.208-0.75,2.51-1.646,3.906-2.688
		c1.396-1.041,2.833-2.104,4.312-3.188c1.479-1.083,2.979-2.114,4.5-3.094c1.521-0.979,3.01-1.76,4.469-2.344
		c0.833,0.375,1.489,0.854,1.969,1.438c0.479,0.584,0.875,1.198,1.188,1.844c0.312,0.646,0.604,1.292,0.875,1.938
		c0.271,0.646,0.635,1.219,1.094,1.719c-0.417,0.834-0.854,1.531-1.312,2.094c-0.459,0.562-0.792,1.24-1,2.031
		c-1.042,0.417-2.292,1.084-3.75,2c-1.25,0.792-2.834,1.875-4.75,3.25c-1.917,1.375-4.188,3.188-6.812,5.438
		c0.625,0.709,1.135,1.375,1.531,2c0.396,0.625,0.719,1.167,0.969,1.625c0.291,0.542,0.521,1.042,0.688,1.5
		c0.458,0.334,0.833,0.729,1.125,1.188c0.291,0.459,0.572,0.928,0.844,1.406c0.271,0.479,0.572,0.928,0.906,1.344
		c0.333,0.417,0.771,0.75,1.312,1c0.166,0.75,0.375,1.448,0.625,2.094c0.25,0.646,0.489,1.281,0.719,1.906
		c0.229,0.625,0.416,1.24,0.562,1.844c0.146,0.604,0.197,1.219,0.156,1.844c-0.334,1.125-0.834,2.062-1.5,2.812
		c-0.667,0.75-1.146,1.521-1.438,2.312c-0.459,0.125-0.906,0.261-1.344,0.406s-0.803,0.364-1.094,0.656l-4.25-3
		c-0.75-2.5-1.834-4.896-3.25-7.188c-1.417-2.291-2.792-4.271-4.125-5.938c-2,1.542-3.917,3.25-5.75,5.125
		c-1.834,1.875-3.5,3.875-5,6c-0.084,1.042-0.209,1.906-0.375,2.594c-0.167,0.688-0.438,1.261-0.812,1.719s-0.854,0.854-1.438,1.188
		C669.468,131.25,668.739,131.583,667.864,131.917z"/>
	<path fill="#202020" d="M760.052,111.167c0.625,0.084,1.072,0.229,1.344,0.438c0.271,0.209,0.447,0.469,0.531,0.781
		c0.083,0.312,0.114,0.656,0.094,1.031c-0.021,0.375-0.031,0.75-0.031,1.125c-0.625,0.417-1.406,0.761-2.344,1.031
		c-0.938,0.271-1.969,0.479-3.094,0.625c-1.125,0.146-2.303,0.25-3.531,0.312c-1.229,0.062-2.448,0.115-3.656,0.156
		c-0.209,1.167-0.459,2.406-0.75,3.719c-0.292,1.312-0.771,2.906-1.438,4.781c-0.584,1.292-1.25,2.198-2,2.719
		c-0.75,0.521-1.531,0.781-2.344,0.781s-1.636-0.197-2.469-0.594c-0.834-0.396-1.625-0.844-2.375-1.344
		c-0.084-0.541-0.104-1.188-0.062-1.938c0.041-0.75,0.104-1.552,0.188-2.406c0.083-0.854,0.197-1.708,0.344-2.562
		c0.146-0.854,0.281-1.697,0.406-2.531c-1.334,0.209-2.406,0.396-3.219,0.562c-0.812,0.167-1.386,0.312-1.719,0.438
		c-0.792-0.041-1.417-0.188-1.875-0.438c-0.459-0.25-0.834-0.552-1.125-0.906c-0.292-0.354-0.542-0.76-0.75-1.219
		c-0.209-0.458-0.459-0.938-0.75-1.438c0.166-0.333,0.197-0.812,0.094-1.438c-0.104-0.625-0.344-1.104-0.719-1.438
		c0.333-0.041,0.583-0.281,0.75-0.718c0.166-0.438,0.166-0.76,0-0.969c0.666-0.166,1.385-0.281,2.156-0.344
		c0.771-0.062,1.531-0.114,2.281-0.156c0.75-0.041,1.458-0.114,2.125-0.219c0.666-0.104,1.25-0.281,1.75-0.531
		c0.583,0,1.135-0.01,1.656-0.031c0.521-0.021,1.072-0.031,1.656-0.031c0.125-0.541,0.104-1-0.062-1.375
		c-0.167-0.375-0.209-0.708-0.125-1c0.083-0.208,0.239-0.344,0.469-0.406c0.229-0.062,0.364-0.197,0.406-0.406
		c0.166-0.541,0.208-0.969,0.125-1.281c-0.084-0.312,0-0.719,0.25-1.219c0.208-0.333,0.489-0.854,0.844-1.562
		c0.354-0.708,0.489-1.458,0.406-2.25c0.416-0.291,0.802-0.625,1.156-1c0.354-0.375,0.729-0.719,1.125-1.031
		c0.396-0.312,0.833-0.583,1.312-0.812c0.479-0.229,1.072-0.344,1.781-0.344c0.375,0.459,0.646,0.896,0.812,1.312
		c0.166,0.417,0.333,0.812,0.5,1.188c0.166,0.375,0.385,0.729,0.656,1.062c0.271,0.334,0.677,0.646,1.219,0.938
		c0,0.375-0.062,0.834-0.188,1.375c-0.125,0.542-0.229,1.084-0.312,1.625c-0.084,0.542-0.104,1.021-0.062,1.438
		c0.041,0.417,0.25,0.709,0.625,0.875c-0.167,0.459-0.323,0.906-0.469,1.344c-0.146,0.438-0.281,0.865-0.406,1.281
		c0.708,0.125,1.521,0.198,2.438,0.219c0.916,0.021,1.791,0.104,2.625,0.25c0.833,0.146,1.594,0.396,2.281,0.75
		C759.271,109.741,759.76,110.335,760.052,111.167z"/>
	<path fill="#202020" d="M794.114,99.605c-1.75-0.708-3.198-1.708-4.344-3c-1.146-1.291-2.072-2.812-2.781-4.562
		c0.417-1.125,1.084-2.072,2-2.844c0.916-0.771,1.947-1.427,3.094-1.969c1.146-0.541,2.364-0.979,3.656-1.312
		c1.291-0.333,2.541-0.625,3.75-0.875c0.25,0.084,0.375,0.084,0.375,0c0-0.083,0.104-0.041,0.312,0.125
		c1.5-0.458,3.229-0.906,5.188-1.344c1.958-0.438,4.041-0.594,6.25-0.469c0.291-0.166,0.646-0.26,1.062-0.281
		c0.416-0.021,0.854-0.031,1.312-0.031c0.458,0,0.896-0.01,1.312-0.031c0.416-0.021,0.771-0.094,1.062-0.219
		c0.25,0.292,0.625,0.469,1.125,0.531s1.021,0.281,1.562,0.656c0.166,0.042,0.166-0.031,0-0.219
		c-0.167-0.188-0.146-0.322,0.062-0.406c0.541,0,1.021,0.125,1.438,0.375c0.416,0.25,0.802,0.531,1.156,0.844
		c0.354,0.312,0.688,0.594,1,0.844s0.656,0.375,1.031,0.375c0.375,0.459,0.822,0.886,1.344,1.281c0.521,0.396,1.021,0.803,1.5,1.219
		c0.479,0.417,0.875,0.875,1.188,1.375s0.469,1.062,0.469,1.688c-0.042,0.25,0.041,0.396,0.25,0.438
		c0.208,0.042,0.354,0.167,0.438,0.375c0.041,1.542-0.198,2.875-0.719,4c-0.521,1.125-1.178,2.156-1.969,3.094
		c-0.792,0.938-1.636,1.823-2.531,2.656c-0.896,0.834-1.719,1.729-2.469,2.688c0.5,0.625,1.072,1.198,1.719,1.719
		c0.646,0.521,1.302,1.031,1.969,1.531c0.666,0.5,1.302,1.031,1.906,1.594c0.604,0.562,1.114,1.198,1.531,1.906
		c0.125,0.25,0.396,0.417,0.812,0.5c0.125,0.5,0.302,1.011,0.531,1.531c0.229,0.521,0.447,1.021,0.656,1.5
		c0.208,0.479,0.333,0.906,0.375,1.281c0.041,0.375-0.062,0.688-0.312,0.938c0.291,0.167,0.458,0.428,0.5,0.781
		c0.041,0.354,0.041,0.636,0,0.844c-0.917,1.125-1.542,1.917-1.875,2.375c-0.334,0.459-0.584,0.792-0.75,1
		c-0.167,0.209-0.334,0.396-0.5,0.562c-0.167,0.167-0.542,0.5-1.125,1c-2.209,1.334-4.511,2.531-6.906,3.594
		c-2.396,1.062-4.886,1.781-7.469,2.156c-0.209,0.292-0.511,0.531-0.906,0.719c-0.396,0.188-0.844,0.344-1.344,0.469
		s-1.031,0.229-1.594,0.312c-0.562,0.083-1.073,0.166-1.531,0.25c-0.209-0.084-0.323-0.219-0.344-0.406
		c-0.021-0.188-0.136-0.323-0.344-0.406c-0.042,0.5-0.261,0.76-0.656,0.781c-0.396,0.021-0.886-0.073-1.469-0.281
		c-0.584-0.209-1.188-0.5-1.812-0.875s-1.167-0.729-1.625-1.062c-0.209,0.375-0.469,0.771-0.781,1.188s-0.636,0.708-0.969,0.875
		c-0.584-0.084-1.011-0.146-1.281-0.188c-0.271-0.042-0.531,0.062-0.781,0.312c-0.334-0.167-0.584-0.344-0.75-0.531
		c-0.167-0.188-0.334-0.375-0.5-0.562c-0.167-0.188-0.354-0.354-0.562-0.5c-0.209-0.146-0.521-0.281-0.938-0.406
		c0.083-0.208,0.021-0.531-0.188-0.969c-0.209-0.438-0.5-0.697-0.875-0.781c0.208-0.333,0.125-0.76-0.25-1.281
		c-0.375-0.521-0.667-1.114-0.875-1.781c0.041-0.291,0.072-0.594,0.094-0.906c0.021-0.312,0.062-0.604,0.125-0.875
		c0.062-0.271,0.156-0.51,0.281-0.719c0.125-0.208,0.333-0.354,0.625-0.438c-0.042-0.541-0.209-1.062-0.5-1.562
		c0.375-0.291,0.625-0.656,0.75-1.094s0.239-0.885,0.344-1.344c0.104-0.458,0.239-0.906,0.406-1.344
		c0.166-0.438,0.438-0.802,0.812-1.094c-0.084-0.125-0.167-0.229-0.25-0.312c-0.084-0.083-0.125-0.229-0.125-0.438
		c0.625-1.041,1.062-1.927,1.312-2.656c0.25-0.728,0.447-1.437,0.594-2.125c0.146-0.688,0.302-1.427,0.469-2.219
		c0.166-0.791,0.5-1.791,1-3c-0.042-0.75,0.041-1.416,0.25-2c0.208-0.583,0.427-1.156,0.656-1.719
		c0.229-0.562,0.406-1.156,0.531-1.781s0.104-1.354-0.062-2.188c-0.709,0.084-1.219,0.334-1.531,0.75
		c-0.312,0.417-0.511,0.979-0.594,1.688c-0.375,0.334-0.854,0.49-1.438,0.469C795.093,99.366,794.572,99.439,794.114,99.605z
		 M817.239,92.105c-2.584-0.083-5.125,0.146-7.625,0.688c-2.5,0.542-4.604,1.334-6.312,2.375c0.833,0.709,1.697,1.334,2.594,1.875
		c0.896,0.542,1.572,1.271,2.031,2.188c2-0.791,3.75-1.802,5.25-3.031C814.677,94.971,816.03,93.605,817.239,92.105z
		 M821.614,111.667c-1.584-0.875-3.031-1.395-4.344-1.562c-1.312-0.166-2.562-0.156-3.75,0.031s-2.323,0.448-3.406,0.781
		c-1.084,0.333-2.167,0.583-3.25,0.75c-0.542,1.417-1.104,2.979-1.688,4.688c-0.584,1.709-1.146,3.375-1.688,5
		c1.5-0.208,2.875-0.521,4.125-0.938c1.25-0.416,2.458-0.885,3.625-1.406c1.166-0.521,2.312-1.041,3.438-1.562
		c1.125-0.521,2.291-1.01,3.5-1.469c0.125-0.5,0.396-0.896,0.812-1.188c0.416-0.291,0.833-0.572,1.25-0.844
		c0.416-0.271,0.771-0.572,1.062-0.906C821.593,112.709,821.697,112.251,821.614,111.667z"/>
	<path fill="#202020" d="M842.927,123.292c-0.459,1.667-0.865,2.928-1.219,3.781c-0.354,0.854-0.886,1.74-1.594,2.656
		c-0.542-0.083-0.917-0.021-1.125,0.188c-0.209,0.208-0.438,0.396-0.688,0.562c-0.375,0.083-0.646,0.083-0.812,0
		c-0.167-0.084-0.312-0.178-0.438-0.281c-0.125-0.104-0.281-0.209-0.469-0.312s-0.469-0.156-0.844-0.156
		c-0.084-0.333-0.178-0.646-0.281-0.938c-0.104-0.291-0.386-0.396-0.844-0.312c0.083-0.333,0.104-0.614,0.062-0.844
		c-0.042-0.229-0.094-0.438-0.156-0.625s-0.115-0.375-0.156-0.562c-0.042-0.188-0.021-0.427,0.062-0.719
		c-0.209,0-0.375-0.146-0.5-0.438c-0.125-0.291-0.271-0.583-0.438-0.875c0.125-0.75,0.25-1.458,0.375-2.125
		c0.125-0.666,0.281-1.291,0.469-1.875c0.188-0.583,0.344-1.166,0.469-1.75c0.125-0.583,0.062-1.188-0.188-1.812
		c0.166,0.125,0.291,0.094,0.375-0.094c0.083-0.188,0.146-0.438,0.188-0.75c0.041-0.312,0.062-0.625,0.062-0.938
		s-0.021-0.572-0.062-0.781c0.416-1.083,0.76-2.197,1.031-3.343c0.271-1.146,0.521-2.281,0.75-3.406
		c0.229-1.125,0.469-2.229,0.719-3.312c0.25-1.083,0.583-2.083,1-3c0.458-0.083,0.969-0.031,1.531,0.156s0.906,0.428,1.031,0.719
		c1.083-0.833,2.041-1.844,2.875-3.031c0.833-1.188,1.688-2.344,2.562-3.469s1.844-2.125,2.906-3s2.406-1.396,4.031-1.562
		c0.833,0.625,1.76,1.261,2.781,1.906c1.021,0.646,1.864,1.49,2.531,2.531c0.333,0.167,0.614,0.344,0.844,0.531
		c0.229,0.188,0.51,0.386,0.844,0.594v0.75c0.5,0.459,0.906,0.99,1.219,1.594c0.312,0.604,0.594,1.25,0.844,1.938
		s0.5,1.375,0.75,2.062s0.541,1.344,0.875,1.969c-0.084,0.209-0.125,0.386-0.125,0.531c0,0.146,0.031,0.303,0.094,0.469
		c0.062,0.167,0.114,0.334,0.156,0.5c0.041,0.167,0.041,0.396,0,0.688c-0.125,1.834-0.719,3.312-1.781,4.437
		c-1.062,1.125-2.344,2.053-3.844,2.781c-1.5,0.729-3.104,1.344-4.812,1.844c-1.709,0.5-3.25,1.042-4.625,1.625
		c0,0.167,0.072,0.25,0.219,0.25c0.146,0,0.197,0.104,0.156,0.312c1,0.625,1.791,1.125,2.375,1.5
		c0.583,0.375,1.135,0.688,1.656,0.938c0.521,0.25,1.083,0.469,1.688,0.656c0.604,0.188,1.447,0.406,2.531,0.656
		c1.083,0.25,1.927,0.448,2.531,0.594c0.604,0.146,1.156,0.271,1.656,0.375c0.5,0.104,1.01,0.188,1.531,0.25
		c0.521,0.062,1.26,0.136,2.219,0.219c0.375,0.375,0.697,0.823,0.969,1.344c0.271,0.521,0.447,1.042,0.531,1.562
		c0.083,0.521,0.104,1.021,0.062,1.5c-0.042,0.479-0.188,0.865-0.438,1.156c0.041,0.125,0.135,0.178,0.281,0.156
		c0.146-0.021,0.302-0.01,0.469,0.031c-0.25,0.167-0.459,0.375-0.625,0.625c-0.167,0.25-0.334,0.5-0.5,0.75
		c-0.167,0.25-0.354,0.469-0.562,0.656c-0.209,0.188-0.5,0.302-0.875,0.344c-1.292,0.5-2.917,0.531-4.875,0.094
		c-1.959-0.438-4.438-1.24-7.438-2.406c-1.5-0.583-2.719-1.094-3.656-1.531s-1.75-0.875-2.438-1.312s-1.312-0.906-1.875-1.406
		S843.718,124.001,842.927,123.292z M851.864,101.855c-0.459,0.667-0.969,1.271-1.531,1.812c-0.562,0.542-1.104,1.094-1.625,1.656
		c-0.521,0.562-0.99,1.188-1.406,1.875c-0.417,0.688-0.709,1.49-0.875,2.406c1.458-0.166,2.979-0.572,4.562-1.219
		c1.583-0.646,3.083-1.26,4.5-1.844c-0.167-1.291-0.615-2.333-1.344-3.125C853.416,102.627,852.655,102.105,851.864,101.855z"/>
	<path fill="#202020" d="M900.552,124.542c-0.25,0.709-0.615,1.428-1.094,2.156c-0.479,0.729-1.042,1.375-1.688,1.938
		c-0.646,0.562-1.365,1.031-2.156,1.406c-0.792,0.375-1.625,0.583-2.5,0.625c-0.542-0.125-0.906-0.261-1.094-0.406
		c-0.188-0.146-0.386-0.281-0.594-0.406c-0.125-0.083-0.24-0.156-0.344-0.219c-0.104-0.062-0.198-0.114-0.281-0.156l-0.75-0.312
		l0.25-0.812c0.083-0.333,0.062-0.594-0.062-0.781s-0.375-0.447-0.75-0.781c-0.125-0.125-0.25-0.25-0.375-0.375
		s-0.229-0.25-0.312-0.375l-1.062-1.188l1.688-0.438c1.041-0.291,1.739-0.666,2.094-1.125c0.354-0.458,0.489-1.229,0.406-2.312
		c-0.834-0.166-1.531-0.188-2.094-0.062s-1.136,0.271-1.719,0.438c-0.75,0.209-1.511,0.386-2.281,0.531
		c-0.771,0.146-1.615,0.219-2.531,0.219c-0.334,0-0.646-0.01-0.938-0.031c-0.292-0.021-0.604-0.052-0.938-0.094l-0.625-0.125
		c-0.084-0.458-0.167-0.719-0.25-0.781c-0.084-0.062-0.167-0.135-0.25-0.219c-0.209-0.208-0.428-0.489-0.656-0.844
		c-0.229-0.354-0.281-0.802-0.156-1.344c-0.209-0.375-0.334-0.75-0.375-1.125c-0.25,0.5-0.438,1.021-0.562,1.562l-0.25,0.625
		l-0.625,0.125c-0.084,0.042-0.146,0.136-0.188,0.281c-0.042,0.146-0.062,0.261-0.062,0.344l-0.312,1.062
		c-0.084,0.084-0.167,0.156-0.25,0.219c-0.084,0.062-0.167,0.136-0.25,0.219c-0.084,0.375-0.188,0.75-0.312,1.125
		s-0.25,0.729-0.375,1.062c-0.209,0.542-0.386,1.073-0.531,1.594c-0.146,0.521-0.198,1.031-0.156,1.531l-0.25,0.688
		c-0.209,0.25-0.438,0.448-0.688,0.594c-0.25,0.146-0.5,0.281-0.75,0.406c-0.084,0.084-0.198,0.156-0.344,0.219
		c-0.146,0.062-0.261,0.115-0.344,0.156l-0.188,0.688l-0.75,0.125c-0.459,0.083-0.781,0.146-0.969,0.188
		c-0.188,0.041-0.406,0.062-0.656,0.062l-0.625-0.062c-0.459-0.375-0.812-0.677-1.062-0.906c-0.25-0.229-0.542-0.447-0.875-0.656
		c-0.375-0.5-0.583-0.875-0.625-1.125c-0.041-0.25-0.083-0.479-0.125-0.688c-0.083-0.25-0.135-0.458-0.156-0.625
		c-0.021-0.166-0.072-0.291-0.156-0.375l-0.812-0.75l0.688-0.562l0.062-1.062c0.834-2.125,1.719-4.166,2.656-6.125
		c0.938-1.958,1.906-3.958,2.906-6c0.333-0.666,0.656-1.333,0.969-2c0.312-0.666,0.635-1.333,0.969-2
		c-0.042-0.125-0.062-0.271-0.062-0.438c0-0.166,0.041-0.354,0.125-0.562c0.458-0.708,0.833-1.344,1.125-1.906
		c0.291-0.562,0.583-1.135,0.875-1.719c0.333-0.708,0.677-1.396,1.031-2.062c0.354-0.666,0.802-1.354,1.344-2.062l1-0.438
		c0.125-0.041,0.271-0.094,0.438-0.156c0.166-0.062,0.354-0.094,0.562-0.094l0.938,0.125c1.166-0.541,2.188-1.302,3.062-2.281
		c0.875-0.979,1.771-2.156,2.688-3.531l0.625-0.875l0.812,0.5c0.208,0.125,0.5,0.24,0.875,0.344
		c0.375,0.104,0.771,0.219,1.188,0.344c0.75,0.167,1.458,0.354,2.125,0.562c0.666,0.209,1.208,0.521,1.625,0.938
		c0.25,0.667,0.396,1.167,0.438,1.5c0.041,0.334,0.104,0.667,0.188,1c0.125,0.709,0.239,1.417,0.344,2.125
		c0.104,0.709,0.177,1.5,0.219,2.375c0.208,0.709,0.385,1.406,0.531,2.094c0.146,0.688,0.281,1.386,0.406,2.094
		c0.208,1,0.416,1.969,0.625,2.906c0.208,0.938,0.479,1.823,0.812,2.656c0.333,0,0.541,0.021,0.625,0.062
		c0.208-0.083,0.427-0.146,0.656-0.188c0.229-0.041,0.489-0.083,0.781-0.125l0.688-0.062l0.25,0.625
		c0.041,0.209,0.25,0.417,0.625,0.625c0.541,0.042,0.938,0.156,1.188,0.344s0.479,0.386,0.688,0.594
		c0.166,0.167,0.333,0.292,0.5,0.375l0.938,0.375l-0.5,0.938c-0.417,0.75-1.011,1.469-1.781,2.156
		c-0.771,0.688-1.636,1.261-2.594,1.719c0.041,0.25,0.072,0.49,0.094,0.719c0.021,0.229,0.072,0.469,0.156,0.719
		c0.125,0.709,0.229,1.438,0.312,2.188c0.083,0.75,0.083,1.521,0,2.312L900.552,124.542z M882.489,113.73
		c1.25-0.083,2.385-0.177,3.406-0.281c1.021-0.104,2.156-0.281,3.406-0.531c-0.292-1.25-0.604-2.551-0.938-3.906
		c-0.334-1.354-0.688-2.697-1.062-4.031l-0.375,0.625c-0.834,0.875-1.636,1.854-2.406,2.938c-0.771,1.084-1.428,2.104-1.969,3.062
		c-0.25,0.375-0.5,0.75-0.75,1.125s-0.479,0.75-0.688,1.125c0.25-0.041,0.489-0.062,0.719-0.062
		C882.062,113.792,882.28,113.772,882.489,113.73z"/>
	<path fill="#202020" d="M917.489,118.417c-0.375,0.084-0.646,0.303-0.812,0.656c-0.167,0.354-0.323,0.719-0.469,1.094
		c-0.146,0.375-0.292,0.719-0.438,1.031c-0.146,0.312-0.365,0.469-0.656,0.469c-0.042,0.334-0.156,0.625-0.344,0.875
		s-0.365,0.511-0.531,0.781c-0.167,0.271-0.292,0.562-0.375,0.875c-0.084,0.312-0.042,0.678,0.125,1.094
		c-0.334,0.25-0.542,0.604-0.625,1.062c-0.084,0.459-0.178,0.896-0.281,1.312c-0.104,0.417-0.281,0.771-0.531,1.062
		c-0.25,0.292-0.709,0.417-1.375,0.375c-0.125,0.167-0.146,0.271-0.062,0.312c0.083,0.042,0.146,0.188,0.188,0.438
		c-0.459-0.083-0.803-0.053-1.031,0.094c-0.229,0.146-0.511,0.239-0.844,0.281c-0.792-0.25-1.448-0.688-1.969-1.312
		c-0.521-0.625-0.979-1.322-1.375-2.094c-0.396-0.771-0.75-1.552-1.062-2.344c-0.312-0.791-0.614-1.479-0.906-2.062
		c0.125-0.458,0.146-0.906,0.062-1.344c-0.083-0.438-0.229-0.802-0.438-1.094c2.041-4.333,4.271-8.958,6.688-13.875
		c2.416-4.916,4.708-9.771,6.875-14.562c0.958,0.375,1.906,0.803,2.844,1.281c0.938,0.479,1.791,1.031,2.562,1.656
		c0.771,0.625,1.427,1.344,1.969,2.156c0.541,0.812,0.896,1.719,1.062,2.719c-0.084,0.25-0.178,0.344-0.281,0.281
		c-0.104-0.062-0.198-0.031-0.281,0.094c0.166,0.209,0.26,0.354,0.281,0.438c0.021,0.084,0.021,0.167,0,0.25
		c-0.021,0.084-0.031,0.198-0.031,0.344c0,0.146,0.062,0.344,0.188,0.594c-0.167-0.041-0.281-0.021-0.344,0.062
		c-0.062,0.084-0.198,0.084-0.406,0c0.166,0.459,0.219,0.834,0.156,1.125c-0.062,0.292-0.156,0.553-0.281,0.781
		c-0.125,0.229-0.229,0.479-0.312,0.75c-0.084,0.271-0.062,0.615,0.062,1.031c-0.125,0-0.219,0.031-0.281,0.094
		s-0.115,0.125-0.156,0.188c-0.042,0.062-0.094,0.125-0.156,0.188s-0.156,0.073-0.281,0.031c0.125,0.917,0.166,1.834,0.125,2.75
		c-0.042,0.917-0.073,1.844-0.094,2.781c-0.021,0.938-0.011,1.917,0.031,2.938c0.041,1.021,0.188,2.073,0.438,3.156
		c1.5-0.875,2.697-2,3.594-3.375c0.896-1.375,1.625-2.916,2.188-4.625c0.562-1.708,0.989-3.541,1.281-5.5
		c0.291-1.958,0.604-3.958,0.938-6c0.375-0.375,0.666-0.833,0.875-1.375c0.208-0.541,0.396-1.114,0.562-1.719
		c0.166-0.604,0.333-1.208,0.5-1.812c0.166-0.604,0.375-1.156,0.625-1.656c0.625,0.084,1.156,0.281,1.594,0.594s0.844,0.646,1.219,1
		c0.375,0.354,0.771,0.688,1.188,1c0.416,0.312,0.938,0.511,1.562,0.594c0.5,0.709,0.958,1.396,1.375,2.062
		c0.416,0.667,0.688,1.375,0.812,2.125c-0.209,0.334-0.365,0.709-0.469,1.125c-0.104,0.417-0.219,0.834-0.344,1.25
		c-0.125,0.417-0.292,0.803-0.5,1.156c-0.209,0.354-0.5,0.656-0.875,0.906c-0.125,1.084-0.281,2.073-0.469,2.969
		c-0.188,0.896-0.375,1.781-0.562,2.656s-0.344,1.781-0.469,2.718c-0.125,0.938-0.167,1.969-0.125,3.094
		c-0.334,0.959-0.688,1.979-1.062,3.062c-0.375,1.084-0.667,2.062-0.875,2.938c-0.667,0.542-1.188,1.188-1.562,1.938
		s-0.771,1.5-1.188,2.25c-0.167,0.167-0.271,0.209-0.312,0.125c-0.042-0.083-0.188-0.146-0.438-0.188
		c0.041,0.167,0.041,0.292,0,0.375c-0.042,0.084-0.094,0.156-0.156,0.219s-0.104,0.156-0.125,0.281
		c-0.021,0.125,0.01,0.292,0.094,0.5c-0.584,0.25-1.104,0.604-1.562,1.062c-0.459,0.459-0.948,0.875-1.469,1.25
		c-0.521,0.375-1.146,0.625-1.875,0.75c-0.729,0.125-1.678-0.021-2.844-0.438c-1.709-1.25-3.219-2.688-4.531-4.312
		S918.322,120.667,917.489,118.417z"/>
	<path fill="#202020" d="M971.614,112.917c-0.042,0.209-0.084,0.386-0.125,0.531c-0.042,0.146-0.084,0.281-0.125,0.406
		c-0.042,0.125-0.062,0.281-0.062,0.469s0,0.428,0,0.719c-1.25,2.209-2.823,4.062-4.719,5.562c-1.896,1.5-3.979,2.823-6.25,3.969
		c-2.271,1.146-4.636,2.188-7.094,3.125c-2.459,0.938-4.854,1.948-7.188,3.031c-1-0.25-1.761-0.667-2.281-1.25
		c-0.521-0.583-0.917-1.26-1.188-2.031c-0.271-0.771-0.459-1.625-0.562-2.562c-0.104-0.938-0.198-1.906-0.281-2.906
		c0.125-0.458,0.302-0.844,0.531-1.156c0.229-0.312,0.344-0.76,0.344-1.344c0.333-1.083,0.666-2.146,1-3.188
		c0.333-1.041,0.541-2.104,0.625-3.188c0.125-0.333,0.354-0.562,0.688-0.688c0.208-2,0.219-4.031,0.031-6.093
		s-0.531-3.989-1.031-5.781c0.041-0.416,0.094-0.719,0.156-0.906s0.052-0.322-0.031-0.406c-0.042-0.333,0.072-0.5,0.344-0.5
		c0.271,0,0.552,0,0.844,0c0-0.625-0.115-1.25-0.344-1.875c-0.229-0.625-0.448-1.333-0.656-2.125
		c0.291-0.625,0.479-1.239,0.562-1.844c0.083-0.604,0.271-1.135,0.562-1.594c2.25,0.709,4.406,1.562,6.469,2.562
		s4.094,1.729,6.094,2.188c1.5,1.084,3.041,2.156,4.625,3.219c1.583,1.062,3.021,2.229,4.312,3.5
		c1.291,1.271,2.375,2.719,3.25,4.344S971.489,110.668,971.614,112.917z M956.802,116.355c0.875-0.333,1.739-0.688,2.594-1.062
		c0.854-0.375,1.646-0.802,2.375-1.281c0.729-0.479,1.385-1.031,1.969-1.656c0.583-0.625,1.062-1.375,1.438-2.25
		c-0.25-0.5-0.584-0.947-1-1.344c-0.417-0.396-0.834-0.771-1.25-1.125c-0.417-0.354-0.823-0.719-1.219-1.094
		c-0.396-0.375-0.719-0.833-0.969-1.375c-0.542-0.083-1.021-0.239-1.438-0.469c-0.417-0.229-0.823-0.458-1.219-0.688
		c-0.396-0.229-0.812-0.447-1.25-0.656c-0.438-0.208-0.948-0.333-1.531-0.375c-0.917-0.458-1.74-0.791-2.469-1
		c-0.729-0.208-1.281-0.479-1.656-0.812c-0.292,0-0.521,0.062-0.688,0.188c0.416,1.584,0.729,3.073,0.938,4.469
		c0.208,1.396,0.322,2.792,0.344,4.188c0.021,1.396-0.053,2.823-0.219,4.281c-0.167,1.459-0.396,3.042-0.688,4.75
		c0.416-0.041,0.802-0.135,1.156-0.281c0.354-0.146,0.708-0.302,1.062-0.469c0.354-0.166,0.729-0.322,1.125-0.469
		c0.396-0.146,0.864-0.239,1.406-0.281c0.125-0.25,0.302-0.458,0.531-0.625C956.374,116.751,956.593,116.564,956.802,116.355z"/>
	<path fill="#202020" d="M985.864,125.417c0.208,1.25,0.135,2.229-0.219,2.938c-0.354,0.709-0.854,1.24-1.5,1.594
		c-0.646,0.354-1.386,0.552-2.219,0.594c-0.834,0.041-1.625,0-2.375-0.125c-0.417-0.584-0.792-1.312-1.125-2.188
		c-0.334-0.875-0.646-1.781-0.938-2.719c-0.292-0.938-0.553-1.864-0.781-2.781c-0.229-0.916-0.428-1.729-0.594-2.438
		c0.208-0.5,0.344-1.072,0.406-1.719c0.062-0.646,0.104-1.302,0.125-1.969c0.021-0.666,0.041-1.344,0.062-2.031
		c0.021-0.688,0.072-1.344,0.156-1.969c0.291-1.75,0.719-3.416,1.281-5c0.562-1.583,1.01-3.229,1.344-4.938
		c0.083-0.375,0.052-0.729-0.094-1.062c-0.146-0.333-0.178-0.646-0.094-0.938c0.041-0.166,0.166-0.281,0.375-0.344
		c0.208-0.062,0.333-0.197,0.375-0.406c0.125-0.458,0.156-0.833,0.094-1.125c-0.062-0.291,0.01-0.646,0.219-1.062
		c0.208-0.333,0.469-0.822,0.781-1.469c0.312-0.646,0.427-1.322,0.344-2.031c0.375-0.25,0.729-0.541,1.062-0.875
		c0.333-0.333,0.677-0.635,1.031-0.906c0.354-0.271,0.75-0.51,1.188-0.719c0.438-0.208,0.969-0.312,1.594-0.312
		c0.333,0.417,0.552,0.875,0.656,1.375c0.104,0.5,0.208,1,0.312,1.5c0.104,0.5,0.26,0.969,0.469,1.406
		c0.208,0.438,0.562,0.781,1.062,1.031c0,0.334,0,0.75,0,1.25s0.021,0.99,0.062,1.469c0.041,0.479,0.135,0.917,0.281,1.312
		c0.146,0.396,0.385,0.656,0.719,0.781c-0.75,2-1.448,3.979-2.094,5.938c-0.646,1.959-1.178,3.927-1.594,5.906
		c-0.417,1.979-0.678,3.969-0.781,5.969C985.354,121.355,985.489,123.376,985.864,125.417z"/>
	<path fill="#202020" d="M1005.927,118.417c-0.375,0.084-0.646,0.303-0.812,0.656c-0.167,0.354-0.323,0.719-0.469,1.094
		c-0.146,0.375-0.292,0.719-0.438,1.031c-0.146,0.312-0.365,0.469-0.656,0.469c-0.042,0.334-0.156,0.625-0.344,0.875
		s-0.365,0.511-0.531,0.781c-0.167,0.271-0.292,0.562-0.375,0.875c-0.084,0.312-0.042,0.678,0.125,1.094
		c-0.334,0.25-0.542,0.604-0.625,1.062c-0.084,0.459-0.178,0.896-0.281,1.312c-0.104,0.417-0.281,0.771-0.531,1.062
		c-0.25,0.292-0.709,0.417-1.375,0.375c-0.125,0.167-0.146,0.271-0.062,0.312c0.083,0.042,0.146,0.188,0.188,0.438
		c-0.459-0.083-0.803-0.053-1.031,0.094c-0.229,0.146-0.511,0.239-0.844,0.281c-0.792-0.25-1.448-0.688-1.969-1.312
		c-0.521-0.625-0.979-1.322-1.375-2.094c-0.396-0.771-0.75-1.552-1.062-2.344c-0.312-0.791-0.614-1.479-0.906-2.062
		c0.125-0.458,0.146-0.906,0.062-1.344c-0.083-0.438-0.229-0.802-0.438-1.094c2.041-4.333,4.271-8.958,6.688-13.875
		c2.416-4.916,4.708-9.771,6.875-14.562c0.958,0.375,1.906,0.803,2.844,1.281c0.938,0.479,1.791,1.031,2.562,1.656
		c0.771,0.625,1.427,1.344,1.969,2.156c0.541,0.812,0.896,1.719,1.062,2.719c-0.084,0.25-0.178,0.344-0.281,0.281
		c-0.104-0.062-0.198-0.031-0.281,0.094c0.166,0.209,0.26,0.354,0.281,0.438c0.021,0.084,0.021,0.167,0,0.25
		c-0.021,0.084-0.031,0.198-0.031,0.344c0,0.146,0.062,0.344,0.188,0.594c-0.167-0.041-0.281-0.021-0.344,0.062
		c-0.062,0.084-0.198,0.084-0.406,0c0.166,0.459,0.219,0.834,0.156,1.125c-0.062,0.292-0.156,0.553-0.281,0.781
		c-0.125,0.229-0.229,0.479-0.312,0.75c-0.084,0.271-0.062,0.615,0.062,1.031c-0.125,0-0.219,0.031-0.281,0.094
		s-0.115,0.125-0.156,0.188c-0.042,0.062-0.094,0.125-0.156,0.188s-0.156,0.073-0.281,0.031c0.125,0.917,0.166,1.834,0.125,2.75
		c-0.042,0.917-0.073,1.844-0.094,2.781c-0.021,0.938-0.011,1.917,0.031,2.938c0.041,1.021,0.188,2.073,0.438,3.156
		c1.5-0.875,2.697-2,3.594-3.375c0.896-1.375,1.625-2.916,2.188-4.625c0.562-1.708,0.989-3.541,1.281-5.5
		c0.291-1.958,0.604-3.958,0.938-6c0.375-0.375,0.666-0.833,0.875-1.375c0.208-0.541,0.396-1.114,0.562-1.719
		c0.166-0.604,0.333-1.208,0.5-1.812c0.166-0.604,0.375-1.156,0.625-1.656c0.625,0.084,1.156,0.281,1.594,0.594s0.844,0.646,1.219,1
		c0.375,0.354,0.771,0.688,1.188,1c0.416,0.312,0.938,0.511,1.562,0.594c0.5,0.709,0.958,1.396,1.375,2.062
		c0.416,0.667,0.688,1.375,0.812,2.125c-0.209,0.334-0.365,0.709-0.469,1.125c-0.104,0.417-0.219,0.834-0.344,1.25
		c-0.125,0.417-0.292,0.803-0.5,1.156c-0.209,0.354-0.5,0.656-0.875,0.906c-0.125,1.084-0.281,2.073-0.469,2.969
		c-0.188,0.896-0.375,1.781-0.562,2.656s-0.344,1.781-0.469,2.718c-0.125,0.938-0.167,1.969-0.125,3.094
		c-0.334,0.959-0.688,1.979-1.062,3.062c-0.375,1.084-0.667,2.062-0.875,2.938c-0.667,0.542-1.188,1.188-1.562,1.938
		s-0.771,1.5-1.188,2.25c-0.167,0.167-0.271,0.209-0.312,0.125c-0.042-0.083-0.188-0.146-0.438-0.188
		c0.041,0.167,0.041,0.292,0,0.375c-0.042,0.084-0.094,0.156-0.156,0.219s-0.104,0.156-0.125,0.281
		c-0.021,0.125,0.01,0.292,0.094,0.5c-0.584,0.25-1.104,0.604-1.562,1.062c-0.459,0.459-0.948,0.875-1.469,1.25
		c-0.521,0.375-1.146,0.625-1.875,0.75c-0.729,0.125-1.678-0.021-2.844-0.438c-1.709-1.25-3.219-2.688-4.531-4.312
		S1006.76,120.667,1005.927,118.417z"/>
	<path fill="#202020" d="M1073.552,118.542c-1,1.792-2.312,3.178-3.938,4.156c-1.625,0.979-3.417,1.792-5.375,2.438
		c-1.959,0.646-4.011,1.219-6.156,1.719c-2.146,0.5-4.219,1.146-6.219,1.938c-0.584,0-1.094,0.021-1.531,0.062
		c-0.438,0.042-0.854,0.094-1.25,0.156c-0.396,0.062-0.781,0.125-1.156,0.188s-0.792,0.115-1.25,0.156
		c-0.167-0.041-0.271-0.01-0.312,0.094c-0.042,0.104-0.104,0.198-0.188,0.281c-0.709,0.125-1.344,0.188-1.906,0.188
		s-1.031,0-1.406,0c-0.5,0-1.011,0.072-1.531,0.219c-0.521,0.146-0.99,0.197-1.406,0.156c-3.125-0.167-5.573-1.281-7.344-3.344
		c-1.771-2.062-2.761-4.927-2.969-8.594c0.041-0.208,0.01-0.333-0.094-0.375c-0.104-0.041-0.198-0.104-0.281-0.188
		c0-0.416,0.052-0.771,0.156-1.062c0.104-0.291,0.114-0.666,0.031-1.125c1.083-2.291,2.312-4.427,3.688-6.406
		c1.375-1.979,3.021-3.719,4.938-5.219c0.291-0.25,0.541-0.5,0.75-0.75c0.208-0.25,0.406-0.5,0.594-0.75s0.406-0.469,0.656-0.656
		s0.562-0.322,0.938-0.406c0.875-1,1.916-1.916,3.125-2.75c1.208-0.833,2.479-1.635,3.812-2.406
		c1.333-0.771,2.656-1.541,3.969-2.312c1.312-0.771,2.51-1.635,3.594-2.594c0.458,0.209,0.791,0.271,1,0.188
		c0.208-0.083,0.438-0.083,0.688,0c0.291,0.625,0.697,1.062,1.219,1.312c0.521,0.25,1.041,0.511,1.562,0.781
		c0.521,0.271,1.01,0.594,1.469,0.969c0.458,0.375,0.812,0.875,1.062,1.5c-0.25,0-0.365,0.094-0.344,0.281
		c0.021,0.188,0.072,0.375,0.156,0.562c0.083,0.188,0.114,0.375,0.094,0.562c-0.021,0.188-0.178,0.281-0.469,0.281
		c0.041,0.209,0.177,0.323,0.406,0.344c0.229,0.021,0.344,0.136,0.344,0.344c0,0.209-0.053,0.375-0.156,0.5
		c-0.104,0.125-0.115,0.334-0.031,0.625c-0.834,0.542-1.761,1.062-2.781,1.562c-1.021,0.5-2.084,1.031-3.188,1.594
		c-1.104,0.562-2.25,1.167-3.438,1.812c-1.188,0.646-2.344,1.386-3.469,2.219c-1.125,0.834-2.271,1.761-3.438,2.781
		c-1.167,1.021-2.292,2.093-3.375,3.218c-1.084,1.125-2.104,2.281-3.062,3.469c-0.959,1.188-1.771,2.365-2.438,3.531
		c0.083,0.209,0.177,0.365,0.281,0.469c0.104,0.104,0.197,0.261,0.281,0.469c1.333,0.084,2.572,0.073,3.719-0.031
		c1.146-0.104,2.302-0.031,3.469,0.219c0.125-0.083,0.208-0.208,0.25-0.375c0.041-0.166,0.146-0.291,0.312-0.375
		c2.375-0.25,4.583-0.635,6.625-1.156c2.041-0.521,4.125-1.072,6.25-1.656c-0.334-0.125-0.636-0.239-0.906-0.344
		c-0.271-0.104-0.531-0.197-0.781-0.281c-0.209-0.208-0.198-0.385,0.031-0.531c0.229-0.146,0.427-0.302,0.594-0.469
		c-0.584-0.333-1.053-0.75-1.406-1.25c-0.354-0.5-0.573-1.166-0.656-2c0.25-0.208,0.375-0.458,0.375-0.75
		c0-0.291-0.125-0.521-0.375-0.687c-0.167-0.041-0.271-0.041-0.312,0c-0.042,0.042-0.073,0.104-0.094,0.187
		c-0.021,0.084-0.053,0.156-0.094,0.219c-0.042,0.062-0.146,0.053-0.312-0.031c0.041-0.375,0.135-0.687,0.281-0.937
		c0.146-0.25,0.26-0.541,0.344-0.875l4.312-2.875c0.458,0.334,1.021,0.698,1.688,1.094c0.666,0.396,1.364,0.792,2.094,1.188
		c0.729,0.396,1.479,0.792,2.25,1.188c0.771,0.396,1.489,0.781,2.156,1.156c0.583,0.25,1.104,0.584,1.562,1
		c0.458,0.417,0.896,0.844,1.312,1.281c0.416,0.438,0.844,0.865,1.281,1.281c0.438,0.417,0.947,0.771,1.531,1.062
		c-0.084,0.542-0.062,0.979,0.062,1.312C1073.552,117.626,1073.593,118.042,1073.552,118.542z"/>
</g>
</svg>
